<?xml version="1.0" encoding="utf-8" standalone="no"?>
<!DOCTYPE svg PUBLIC "-//W3C//DTD SVG 1.1//EN"
  "http://www.w3.org/Graphics/SVG/1.1/DTD/svg11.dtd">
<svg xmlns:xlink="http://www.w3.org/1999/xlink" width="423.4325pt" height="381.759504pt" viewBox="0 0 423.4325 381.759504" xmlns="http://www.w3.org/2000/svg" version="1.1">
 <metadata>
  <rdf:RDF xmlns:dc="http://purl.org/dc/elements/1.1/" xmlns:cc="http://creativecommons.org/ns#" xmlns:rdf="http://www.w3.org/1999/02/22-rdf-syntax-ns#">
   <cc:Work>
    <dc:type rdf:resource="http://purl.org/dc/dcmitype/StillImage"/>
    <dc:date>2023-11-26T10:23:46.668526</dc:date>
    <dc:format>image/svg+xml</dc:format>
    <dc:creator>
     <cc:Agent>
      <dc:title>Matplotlib v3.5.3, https://matplotlib.org/</dc:title>
     </cc:Agent>
    </dc:creator>
   </cc:Work>
  </rdf:RDF>
 </metadata>
 <defs>
  <style type="text/css">*{stroke-linejoin: round; stroke-linecap: butt}</style>
 </defs>
 <g id="figure_1">
  <g id="patch_1">
   <path d="M 0 381.759504 
L 423.4325 381.759504 
L 423.4325 0 
L 0 0 
z
" style="fill: #ffffff"/>
  </g>
  <g id="axes_1">
   <g id="patch_2">
    <path d="M 59.1125 141.928504 
L 416.2325 141.928504 
L 416.2325 8.872504 
L 59.1125 8.872504 
z
" style="fill: #ffffff"/>
   </g>
   <g id="PolyCollection_1">
    <path d="M 75.345227 135.880504 
L 75.345227 33.560016 
L 129.454318 14.920504 
L 183.563409 45.376027 
L 237.6725 31.179725 
L 291.781591 44.613113 
L 345.890682 25.784398 
L 399.999773 130.120504 
L 399.999773 135.880504 
L 399.999773 135.880504 
L 345.890682 135.880504 
L 291.781591 135.880504 
L 237.6725 135.880504 
L 183.563409 135.880504 
L 129.454318 135.880504 
L 75.345227 135.880504 
z
" clip-path="url(#p0dbee53938)" style="fill: #1f77b4; fill-opacity: 0.3"/>
   </g>
   <g id="matplotlib.axis_1">
    <g id="xtick_1">
     <g id="line2d_1">
      <path d="M 75.345227 141.928504 
L 75.345227 8.872504 
" clip-path="url(#p0dbee53938)" style="fill: none; stroke: #b0b0b0; stroke-width: 0.8; stroke-linecap: square"/>
     </g>
     <g id="line2d_2">
      <defs>
       <path id="mad9c7c60c0" d="M 0 0 
L 0 3.5 
" style="stroke: #000000; stroke-width: 0.8"/>
      </defs>
      <g>
       <use xlink:href="#mad9c7c60c0" x="75.345227" y="141.928504" style="stroke: #000000; stroke-width: 0.8"/>
      </g>
     </g>
    </g>
    <g id="xtick_2">
     <g id="line2d_3">
      <path d="M 129.454318 141.928504 
L 129.454318 8.872504 
" clip-path="url(#p0dbee53938)" style="fill: none; stroke: #b0b0b0; stroke-width: 0.8; stroke-linecap: square"/>
     </g>
     <g id="line2d_4">
      <g>
       <use xlink:href="#mad9c7c60c0" x="129.454318" y="141.928504" style="stroke: #000000; stroke-width: 0.8"/>
      </g>
     </g>
    </g>
    <g id="xtick_3">
     <g id="line2d_5">
      <path d="M 183.563409 141.928504 
L 183.563409 8.872504 
" clip-path="url(#p0dbee53938)" style="fill: none; stroke: #b0b0b0; stroke-width: 0.8; stroke-linecap: square"/>
     </g>
     <g id="line2d_6">
      <g>
       <use xlink:href="#mad9c7c60c0" x="183.563409" y="141.928504" style="stroke: #000000; stroke-width: 0.8"/>
      </g>
     </g>
    </g>
    <g id="xtick_4">
     <g id="line2d_7">
      <path d="M 237.6725 141.928504 
L 237.6725 8.872504 
" clip-path="url(#p0dbee53938)" style="fill: none; stroke: #b0b0b0; stroke-width: 0.8; stroke-linecap: square"/>
     </g>
     <g id="line2d_8">
      <g>
       <use xlink:href="#mad9c7c60c0" x="237.6725" y="141.928504" style="stroke: #000000; stroke-width: 0.8"/>
      </g>
     </g>
    </g>
    <g id="xtick_5">
     <g id="line2d_9">
      <path d="M 291.781591 141.928504 
L 291.781591 8.872504 
" clip-path="url(#p0dbee53938)" style="fill: none; stroke: #b0b0b0; stroke-width: 0.8; stroke-linecap: square"/>
     </g>
     <g id="line2d_10">
      <g>
       <use xlink:href="#mad9c7c60c0" x="291.781591" y="141.928504" style="stroke: #000000; stroke-width: 0.8"/>
      </g>
     </g>
    </g>
    <g id="xtick_6">
     <g id="line2d_11">
      <path d="M 345.890682 141.928504 
L 345.890682 8.872504 
" clip-path="url(#p0dbee53938)" style="fill: none; stroke: #b0b0b0; stroke-width: 0.8; stroke-linecap: square"/>
     </g>
     <g id="line2d_12">
      <g>
       <use xlink:href="#mad9c7c60c0" x="345.890682" y="141.928504" style="stroke: #000000; stroke-width: 0.8"/>
      </g>
     </g>
    </g>
    <g id="xtick_7">
     <g id="line2d_13">
      <path d="M 399.999773 141.928504 
L 399.999773 8.872504 
" clip-path="url(#p0dbee53938)" style="fill: none; stroke: #b0b0b0; stroke-width: 0.8; stroke-linecap: square"/>
     </g>
     <g id="line2d_14">
      <g>
       <use xlink:href="#mad9c7c60c0" x="399.999773" y="141.928504" style="stroke: #000000; stroke-width: 0.8"/>
      </g>
     </g>
    </g>
   </g>
   <g id="matplotlib.axis_2">
    <g id="ytick_1">
     <g id="line2d_15">
      <path d="M 59.1125 133.904557 
L 416.2325 133.904557 
" clip-path="url(#p0dbee53938)" style="fill: none; stroke: #b0b0b0; stroke-width: 0.8; stroke-linecap: square"/>
     </g>
     <g id="line2d_16">
      <defs>
       <path id="mf4963f9c18" d="M 0 0 
L -3.5 0 
" style="stroke: #000000; stroke-width: 0.8"/>
      </defs>
      <g>
       <use xlink:href="#mf4963f9c18" x="59.1125" y="133.904557" style="stroke: #000000; stroke-width: 0.8"/>
      </g>
     </g>
     <g id="text_1">
      <!-- 01:00:00 -->
      <g transform="translate(7.2 137.703775)scale(0.1 -0.1)">
       <defs>
        <path id="DejaVuSans-30" d="M 2034 4250 
Q 1547 4250 1301 3770 
Q 1056 3291 1056 2328 
Q 1056 1369 1301 889 
Q 1547 409 2034 409 
Q 2525 409 2770 889 
Q 3016 1369 3016 2328 
Q 3016 3291 2770 3770 
Q 2525 4250 2034 4250 
z
M 2034 4750 
Q 2819 4750 3233 4129 
Q 3647 3509 3647 2328 
Q 3647 1150 3233 529 
Q 2819 -91 2034 -91 
Q 1250 -91 836 529 
Q 422 1150 422 2328 
Q 422 3509 836 4129 
Q 1250 4750 2034 4750 
z
" transform="scale(0.015625)"/>
        <path id="DejaVuSans-31" d="M 794 531 
L 1825 531 
L 1825 4091 
L 703 3866 
L 703 4441 
L 1819 4666 
L 2450 4666 
L 2450 531 
L 3481 531 
L 3481 0 
L 794 0 
L 794 531 
z
" transform="scale(0.015625)"/>
        <path id="DejaVuSans-3a" d="M 750 794 
L 1409 794 
L 1409 0 
L 750 0 
L 750 794 
z
M 750 3309 
L 1409 3309 
L 1409 2516 
L 750 2516 
L 750 3309 
z
" transform="scale(0.015625)"/>
       </defs>
       <use xlink:href="#DejaVuSans-30"/>
       <use xlink:href="#DejaVuSans-31" x="63.623047"/>
       <use xlink:href="#DejaVuSans-3a" x="127.246094"/>
       <use xlink:href="#DejaVuSans-30" x="160.9375"/>
       <use xlink:href="#DejaVuSans-30" x="224.560547"/>
       <use xlink:href="#DejaVuSans-3a" x="288.183594"/>
       <use xlink:href="#DejaVuSans-30" x="321.875"/>
       <use xlink:href="#DejaVuSans-30" x="385.498047"/>
      </g>
     </g>
    </g>
    <g id="ytick_2">
     <g id="line2d_17">
      <path d="M 59.1125 111.932636 
L 416.2325 111.932636 
" clip-path="url(#p0dbee53938)" style="fill: none; stroke: #b0b0b0; stroke-width: 0.8; stroke-linecap: square"/>
     </g>
     <g id="line2d_18">
      <g>
       <use xlink:href="#mf4963f9c18" x="59.1125" y="111.932636" style="stroke: #000000; stroke-width: 0.8"/>
      </g>
     </g>
     <g id="text_2">
      <!-- 02:00:00 -->
      <g transform="translate(7.2 115.731855)scale(0.1 -0.1)">
       <defs>
        <path id="DejaVuSans-32" d="M 1228 531 
L 3431 531 
L 3431 0 
L 469 0 
L 469 531 
Q 828 903 1448 1529 
Q 2069 2156 2228 2338 
Q 2531 2678 2651 2914 
Q 2772 3150 2772 3378 
Q 2772 3750 2511 3984 
Q 2250 4219 1831 4219 
Q 1534 4219 1204 4116 
Q 875 4013 500 3803 
L 500 4441 
Q 881 4594 1212 4672 
Q 1544 4750 1819 4750 
Q 2544 4750 2975 4387 
Q 3406 4025 3406 3419 
Q 3406 3131 3298 2873 
Q 3191 2616 2906 2266 
Q 2828 2175 2409 1742 
Q 1991 1309 1228 531 
z
" transform="scale(0.015625)"/>
       </defs>
       <use xlink:href="#DejaVuSans-30"/>
       <use xlink:href="#DejaVuSans-32" x="63.623047"/>
       <use xlink:href="#DejaVuSans-3a" x="127.246094"/>
       <use xlink:href="#DejaVuSans-30" x="160.9375"/>
       <use xlink:href="#DejaVuSans-30" x="224.560547"/>
       <use xlink:href="#DejaVuSans-3a" x="288.183594"/>
       <use xlink:href="#DejaVuSans-30" x="321.875"/>
       <use xlink:href="#DejaVuSans-30" x="385.498047"/>
      </g>
     </g>
    </g>
    <g id="ytick_3">
     <g id="line2d_19">
      <path d="M 59.1125 89.960716 
L 416.2325 89.960716 
" clip-path="url(#p0dbee53938)" style="fill: none; stroke: #b0b0b0; stroke-width: 0.8; stroke-linecap: square"/>
     </g>
     <g id="line2d_20">
      <g>
       <use xlink:href="#mf4963f9c18" x="59.1125" y="89.960716" style="stroke: #000000; stroke-width: 0.8"/>
      </g>
     </g>
     <g id="text_3">
      <!-- 03:00:00 -->
      <g transform="translate(7.2 93.759934)scale(0.1 -0.1)">
       <defs>
        <path id="DejaVuSans-33" d="M 2597 2516 
Q 3050 2419 3304 2112 
Q 3559 1806 3559 1356 
Q 3559 666 3084 287 
Q 2609 -91 1734 -91 
Q 1441 -91 1130 -33 
Q 819 25 488 141 
L 488 750 
Q 750 597 1062 519 
Q 1375 441 1716 441 
Q 2309 441 2620 675 
Q 2931 909 2931 1356 
Q 2931 1769 2642 2001 
Q 2353 2234 1838 2234 
L 1294 2234 
L 1294 2753 
L 1863 2753 
Q 2328 2753 2575 2939 
Q 2822 3125 2822 3475 
Q 2822 3834 2567 4026 
Q 2313 4219 1838 4219 
Q 1578 4219 1281 4162 
Q 984 4106 628 3988 
L 628 4550 
Q 988 4650 1302 4700 
Q 1616 4750 1894 4750 
Q 2613 4750 3031 4423 
Q 3450 4097 3450 3541 
Q 3450 3153 3228 2886 
Q 3006 2619 2597 2516 
z
" transform="scale(0.015625)"/>
       </defs>
       <use xlink:href="#DejaVuSans-30"/>
       <use xlink:href="#DejaVuSans-33" x="63.623047"/>
       <use xlink:href="#DejaVuSans-3a" x="127.246094"/>
       <use xlink:href="#DejaVuSans-30" x="160.9375"/>
       <use xlink:href="#DejaVuSans-30" x="224.560547"/>
       <use xlink:href="#DejaVuSans-3a" x="288.183594"/>
       <use xlink:href="#DejaVuSans-30" x="321.875"/>
       <use xlink:href="#DejaVuSans-30" x="385.498047"/>
      </g>
     </g>
    </g>
    <g id="ytick_4">
     <g id="line2d_21">
      <path d="M 59.1125 67.988795 
L 416.2325 67.988795 
" clip-path="url(#p0dbee53938)" style="fill: none; stroke: #b0b0b0; stroke-width: 0.8; stroke-linecap: square"/>
     </g>
     <g id="line2d_22">
      <g>
       <use xlink:href="#mf4963f9c18" x="59.1125" y="67.988795" style="stroke: #000000; stroke-width: 0.8"/>
      </g>
     </g>
     <g id="text_4">
      <!-- 04:00:00 -->
      <g transform="translate(7.2 71.788014)scale(0.1 -0.1)">
       <defs>
        <path id="DejaVuSans-34" d="M 2419 4116 
L 825 1625 
L 2419 1625 
L 2419 4116 
z
M 2253 4666 
L 3047 4666 
L 3047 1625 
L 3713 1625 
L 3713 1100 
L 3047 1100 
L 3047 0 
L 2419 0 
L 2419 1100 
L 313 1100 
L 313 1709 
L 2253 4666 
z
" transform="scale(0.015625)"/>
       </defs>
       <use xlink:href="#DejaVuSans-30"/>
       <use xlink:href="#DejaVuSans-34" x="63.623047"/>
       <use xlink:href="#DejaVuSans-3a" x="127.246094"/>
       <use xlink:href="#DejaVuSans-30" x="160.9375"/>
       <use xlink:href="#DejaVuSans-30" x="224.560547"/>
       <use xlink:href="#DejaVuSans-3a" x="288.183594"/>
       <use xlink:href="#DejaVuSans-30" x="321.875"/>
       <use xlink:href="#DejaVuSans-30" x="385.498047"/>
      </g>
     </g>
    </g>
    <g id="ytick_5">
     <g id="line2d_23">
      <path d="M 59.1125 46.016875 
L 416.2325 46.016875 
" clip-path="url(#p0dbee53938)" style="fill: none; stroke: #b0b0b0; stroke-width: 0.8; stroke-linecap: square"/>
     </g>
     <g id="line2d_24">
      <g>
       <use xlink:href="#mf4963f9c18" x="59.1125" y="46.016875" style="stroke: #000000; stroke-width: 0.8"/>
      </g>
     </g>
     <g id="text_5">
      <!-- 05:00:00 -->
      <g transform="translate(7.2 49.816093)scale(0.1 -0.1)">
       <defs>
        <path id="DejaVuSans-35" d="M 691 4666 
L 3169 4666 
L 3169 4134 
L 1269 4134 
L 1269 2991 
Q 1406 3038 1543 3061 
Q 1681 3084 1819 3084 
Q 2600 3084 3056 2656 
Q 3513 2228 3513 1497 
Q 3513 744 3044 326 
Q 2575 -91 1722 -91 
Q 1428 -91 1123 -41 
Q 819 9 494 109 
L 494 744 
Q 775 591 1075 516 
Q 1375 441 1709 441 
Q 2250 441 2565 725 
Q 2881 1009 2881 1497 
Q 2881 1984 2565 2268 
Q 2250 2553 1709 2553 
Q 1456 2553 1204 2497 
Q 953 2441 691 2322 
L 691 4666 
z
" transform="scale(0.015625)"/>
       </defs>
       <use xlink:href="#DejaVuSans-30"/>
       <use xlink:href="#DejaVuSans-35" x="63.623047"/>
       <use xlink:href="#DejaVuSans-3a" x="127.246094"/>
       <use xlink:href="#DejaVuSans-30" x="160.9375"/>
       <use xlink:href="#DejaVuSans-30" x="224.560547"/>
       <use xlink:href="#DejaVuSans-3a" x="288.183594"/>
       <use xlink:href="#DejaVuSans-30" x="321.875"/>
       <use xlink:href="#DejaVuSans-30" x="385.498047"/>
      </g>
     </g>
    </g>
    <g id="ytick_6">
     <g id="line2d_25">
      <path d="M 59.1125 24.044954 
L 416.2325 24.044954 
" clip-path="url(#p0dbee53938)" style="fill: none; stroke: #b0b0b0; stroke-width: 0.8; stroke-linecap: square"/>
     </g>
     <g id="line2d_26">
      <g>
       <use xlink:href="#mf4963f9c18" x="59.1125" y="24.044954" style="stroke: #000000; stroke-width: 0.8"/>
      </g>
     </g>
     <g id="text_6">
      <!-- 06:00:00 -->
      <g transform="translate(7.2 27.844173)scale(0.1 -0.1)">
       <defs>
        <path id="DejaVuSans-36" d="M 2113 2584 
Q 1688 2584 1439 2293 
Q 1191 2003 1191 1497 
Q 1191 994 1439 701 
Q 1688 409 2113 409 
Q 2538 409 2786 701 
Q 3034 994 3034 1497 
Q 3034 2003 2786 2293 
Q 2538 2584 2113 2584 
z
M 3366 4563 
L 3366 3988 
Q 3128 4100 2886 4159 
Q 2644 4219 2406 4219 
Q 1781 4219 1451 3797 
Q 1122 3375 1075 2522 
Q 1259 2794 1537 2939 
Q 1816 3084 2150 3084 
Q 2853 3084 3261 2657 
Q 3669 2231 3669 1497 
Q 3669 778 3244 343 
Q 2819 -91 2113 -91 
Q 1303 -91 875 529 
Q 447 1150 447 2328 
Q 447 3434 972 4092 
Q 1497 4750 2381 4750 
Q 2619 4750 2861 4703 
Q 3103 4656 3366 4563 
z
" transform="scale(0.015625)"/>
       </defs>
       <use xlink:href="#DejaVuSans-30"/>
       <use xlink:href="#DejaVuSans-36" x="63.623047"/>
       <use xlink:href="#DejaVuSans-3a" x="127.246094"/>
       <use xlink:href="#DejaVuSans-30" x="160.9375"/>
       <use xlink:href="#DejaVuSans-30" x="224.560547"/>
       <use xlink:href="#DejaVuSans-3a" x="288.183594"/>
       <use xlink:href="#DejaVuSans-30" x="321.875"/>
       <use xlink:href="#DejaVuSans-30" x="385.498047"/>
      </g>
     </g>
    </g>
   </g>
   <g id="line2d_27">
    <path d="M 75.345227 33.560016 
L 129.454318 14.920504 
L 183.563409 45.376027 
L 237.6725 31.179725 
L 291.781591 44.613113 
L 345.890682 25.784398 
L 399.999773 130.120504 
" clip-path="url(#p0dbee53938)" style="fill: none; stroke: #1f77b4; stroke-width: 1.5; stroke-linecap: square"/>
   </g>
   <g id="patch_3">
    <path d="M 59.1125 141.928504 
L 59.1125 8.872504 
" style="fill: none; stroke: #000000; stroke-width: 0.8; stroke-linejoin: miter; stroke-linecap: square"/>
   </g>
   <g id="patch_4">
    <path d="M 416.2325 141.928504 
L 416.2325 8.872504 
" style="fill: none; stroke: #000000; stroke-width: 0.8; stroke-linejoin: miter; stroke-linecap: square"/>
   </g>
   <g id="patch_5">
    <path d="M 59.1125 141.928504 
L 416.2325 141.928504 
" style="fill: none; stroke: #000000; stroke-width: 0.8; stroke-linejoin: miter; stroke-linecap: square"/>
   </g>
   <g id="patch_6">
    <path d="M 59.1125 8.872504 
L 416.2325 8.872504 
" style="fill: none; stroke: #000000; stroke-width: 0.8; stroke-linejoin: miter; stroke-linecap: square"/>
   </g>
   <g id="text_7">
    <!-- 9.59 -->
    <g transform="translate(67.228864 33.43795)scale(0.1 -0.1)">
     <defs>
      <path id="DejaVuSans-39" d="M 703 97 
L 703 672 
Q 941 559 1184 500 
Q 1428 441 1663 441 
Q 2288 441 2617 861 
Q 2947 1281 2994 2138 
Q 2813 1869 2534 1725 
Q 2256 1581 1919 1581 
Q 1219 1581 811 2004 
Q 403 2428 403 3163 
Q 403 3881 828 4315 
Q 1253 4750 1959 4750 
Q 2769 4750 3195 4129 
Q 3622 3509 3622 2328 
Q 3622 1225 3098 567 
Q 2575 -91 1691 -91 
Q 1453 -91 1209 -44 
Q 966 3 703 97 
z
M 1959 2075 
Q 2384 2075 2632 2365 
Q 2881 2656 2881 3163 
Q 2881 3666 2632 3958 
Q 2384 4250 1959 4250 
Q 1534 4250 1286 3958 
Q 1038 3666 1038 3163 
Q 1038 2656 1286 2365 
Q 1534 2075 1959 2075 
z
" transform="scale(0.015625)"/>
      <path id="DejaVuSans-2e" d="M 684 794 
L 1344 794 
L 1344 0 
L 684 0 
L 684 794 
z
" transform="scale(0.015625)"/>
     </defs>
     <use xlink:href="#DejaVuSans-39"/>
     <use xlink:href="#DejaVuSans-2e" x="63.623047"/>
     <use xlink:href="#DejaVuSans-35" x="95.410156"/>
     <use xlink:href="#DejaVuSans-39" x="159.033203"/>
    </g>
   </g>
   <g id="text_8">
    <!-- 10.39 -->
    <g transform="translate(121.337955 14.798438)scale(0.1 -0.1)">
     <use xlink:href="#DejaVuSans-31"/>
     <use xlink:href="#DejaVuSans-30" x="63.623047"/>
     <use xlink:href="#DejaVuSans-2e" x="127.246094"/>
     <use xlink:href="#DejaVuSans-33" x="159.033203"/>
     <use xlink:href="#DejaVuSans-39" x="222.65625"/>
    </g>
   </g>
   <g id="text_9">
    <!-- 9.96 -->
    <g transform="translate(175.447045 45.253961)scale(0.1 -0.1)">
     <use xlink:href="#DejaVuSans-39"/>
     <use xlink:href="#DejaVuSans-2e" x="63.623047"/>
     <use xlink:href="#DejaVuSans-39" x="95.410156"/>
     <use xlink:href="#DejaVuSans-36" x="159.033203"/>
    </g>
   </g>
   <g id="text_10">
    <!-- 10.10 -->
    <g transform="translate(229.556136 31.057659)scale(0.1 -0.1)">
     <use xlink:href="#DejaVuSans-31"/>
     <use xlink:href="#DejaVuSans-30" x="63.623047"/>
     <use xlink:href="#DejaVuSans-2e" x="127.246094"/>
     <use xlink:href="#DejaVuSans-31" x="159.033203"/>
     <use xlink:href="#DejaVuSans-30" x="222.65625"/>
    </g>
   </g>
   <g id="text_11">
    <!-- 9.18 -->
    <g transform="translate(283.665227 44.491047)scale(0.1 -0.1)">
     <defs>
      <path id="DejaVuSans-38" d="M 2034 2216 
Q 1584 2216 1326 1975 
Q 1069 1734 1069 1313 
Q 1069 891 1326 650 
Q 1584 409 2034 409 
Q 2484 409 2743 651 
Q 3003 894 3003 1313 
Q 3003 1734 2745 1975 
Q 2488 2216 2034 2216 
z
M 1403 2484 
Q 997 2584 770 2862 
Q 544 3141 544 3541 
Q 544 4100 942 4425 
Q 1341 4750 2034 4750 
Q 2731 4750 3128 4425 
Q 3525 4100 3525 3541 
Q 3525 3141 3298 2862 
Q 3072 2584 2669 2484 
Q 3125 2378 3379 2068 
Q 3634 1759 3634 1313 
Q 3634 634 3220 271 
Q 2806 -91 2034 -91 
Q 1263 -91 848 271 
Q 434 634 434 1313 
Q 434 1759 690 2068 
Q 947 2378 1403 2484 
z
M 1172 3481 
Q 1172 3119 1398 2916 
Q 1625 2713 2034 2713 
Q 2441 2713 2670 2916 
Q 2900 3119 2900 3481 
Q 2900 3844 2670 4047 
Q 2441 4250 2034 4250 
Q 1625 4250 1398 4047 
Q 1172 3844 1172 3481 
z
" transform="scale(0.015625)"/>
     </defs>
     <use xlink:href="#DejaVuSans-39"/>
     <use xlink:href="#DejaVuSans-2e" x="63.623047"/>
     <use xlink:href="#DejaVuSans-31" x="95.410156"/>
     <use xlink:href="#DejaVuSans-38" x="159.033203"/>
    </g>
   </g>
   <g id="text_12">
    <!-- 9.99 -->
    <g transform="translate(337.774318 25.662332)scale(0.1 -0.1)">
     <use xlink:href="#DejaVuSans-39"/>
     <use xlink:href="#DejaVuSans-2e" x="63.623047"/>
     <use xlink:href="#DejaVuSans-39" x="95.410156"/>
     <use xlink:href="#DejaVuSans-39" x="159.033203"/>
    </g>
   </g>
   <g id="text_13">
    <!-- 6.58 -->
    <g transform="translate(391.883409 129.998437)scale(0.1 -0.1)">
     <use xlink:href="#DejaVuSans-36"/>
     <use xlink:href="#DejaVuSans-2e" x="63.623047"/>
     <use xlink:href="#DejaVuSans-35" x="95.410156"/>
     <use xlink:href="#DejaVuSans-38" x="159.033203"/>
    </g>
   </g>
  </g>
  <g id="axes_2">
   <g id="patch_7">
    <path d="M 59.1125 274.984504 
L 416.2325 274.984504 
L 416.2325 141.928504 
L 59.1125 141.928504 
z
" style="fill: #ffffff"/>
   </g>
   <g id="PolyCollection_2">
    <defs>
     <path id="m2a910555c5" d="M 75.345227 -166.22795 
L 75.345227 -225.220838 
L 129.454318 -225.220838 
L 183.563409 -228.023 
L 237.6725 -171.815888 
L 291.781591 -201.656457 
L 345.890682 -219.960639 
L 399.999773 -222.582545 
L 399.999773 -163.589657 
L 399.999773 -163.589657 
L 345.890682 -160.967751 
L 291.781591 -142.663569 
L 237.6725 -112.823 
L 183.563409 -169.030112 
L 129.454318 -166.22795 
L 75.345227 -166.22795 
z
" style="stroke: #008000; stroke-opacity: 0.4"/>
    </defs>
    <g clip-path="url(#pe2bf067e50)">
     <use xlink:href="#m2a910555c5" x="0" y="381.759504" style="fill: #008000; fill-opacity: 0.4; stroke: #008000; stroke-opacity: 0.4"/>
    </g>
   </g>
   <g id="PolyCollection_3">
    <defs>
     <path id="macb12034d9" d="M 237.456105 -172.040673 
L 237.6725 -172.160013 
L 239.28655 -172.706018 
L 237.6725 -171.815888 
z
" style="stroke: #ff0000; stroke-opacity: 0.8"/>
    </defs>
    <g clip-path="url(#pe2bf067e50)">
     <use xlink:href="#macb12034d9" x="0" y="381.759504" style="fill: #ff0000; fill-opacity: 0.8; stroke: #ff0000; stroke-opacity: 0.8"/>
    </g>
   </g>
   <g id="PolyCollection_4">
    <path d="M 159.070819 213.997796 
L 183.563409 239.44006 
L 200.359794 230.177038 
L 183.563409 212.729391 
z
" clip-path="url(#pe2bf067e50)" style="fill: #ff0000; fill-opacity: 0.8; stroke: #ff0000; stroke-opacity: 0.8"/>
    <path d="M 367.118428 219.763143 
L 399.999773 267.920515 
L 399.999773 267.920515 
L 399.999773 218.169847 
z
" clip-path="url(#pe2bf067e50)" style="fill: #ff0000; fill-opacity: 0.8; stroke: #ff0000; stroke-opacity: 0.8"/>
   </g>
   <g id="PolyCollection_5">
    <path d="M 75.345227 147.976504 
L 75.345227 186.03511 
L 129.454318 183.232948 
L 183.563409 239.44006 
L 237.6725 209.599491 
L 291.781591 191.295309 
L 345.890682 188.673403 
L 399.999773 267.920515 
L 399.999773 147.976504 
L 399.999773 147.976504 
L 345.890682 147.976504 
L 291.781591 147.976504 
L 237.6725 147.976504 
L 183.563409 147.976504 
L 129.454318 147.976504 
L 75.345227 147.976504 
z
" clip-path="url(#pe2bf067e50)" style="fill: #1f77b4; fill-opacity: 0.3"/>
   </g>
   <g id="matplotlib.axis_3">
    <g id="xtick_8">
     <g id="line2d_28">
      <path d="M 75.345227 274.984504 
L 75.345227 141.928504 
" clip-path="url(#pe2bf067e50)" style="fill: none; stroke: #b0b0b0; stroke-width: 0.8; stroke-linecap: square"/>
     </g>
     <g id="line2d_29">
      <g>
       <use xlink:href="#mad9c7c60c0" x="75.345227" y="274.984504" style="stroke: #000000; stroke-width: 0.8"/>
      </g>
     </g>
     <g id="text_14">
      <!-- Sat, 2023-11-18 -->
      <g transform="translate(78.104602 362.853254)rotate(-90)scale(0.1 -0.1)">
       <defs>
        <path id="DejaVuSans-53" d="M 3425 4513 
L 3425 3897 
Q 3066 4069 2747 4153 
Q 2428 4238 2131 4238 
Q 1616 4238 1336 4038 
Q 1056 3838 1056 3469 
Q 1056 3159 1242 3001 
Q 1428 2844 1947 2747 
L 2328 2669 
Q 3034 2534 3370 2195 
Q 3706 1856 3706 1288 
Q 3706 609 3251 259 
Q 2797 -91 1919 -91 
Q 1588 -91 1214 -16 
Q 841 59 441 206 
L 441 856 
Q 825 641 1194 531 
Q 1563 422 1919 422 
Q 2459 422 2753 634 
Q 3047 847 3047 1241 
Q 3047 1584 2836 1778 
Q 2625 1972 2144 2069 
L 1759 2144 
Q 1053 2284 737 2584 
Q 422 2884 422 3419 
Q 422 4038 858 4394 
Q 1294 4750 2059 4750 
Q 2388 4750 2728 4690 
Q 3069 4631 3425 4513 
z
" transform="scale(0.015625)"/>
        <path id="DejaVuSans-61" d="M 2194 1759 
Q 1497 1759 1228 1600 
Q 959 1441 959 1056 
Q 959 750 1161 570 
Q 1363 391 1709 391 
Q 2188 391 2477 730 
Q 2766 1069 2766 1631 
L 2766 1759 
L 2194 1759 
z
M 3341 1997 
L 3341 0 
L 2766 0 
L 2766 531 
Q 2569 213 2275 61 
Q 1981 -91 1556 -91 
Q 1019 -91 701 211 
Q 384 513 384 1019 
Q 384 1609 779 1909 
Q 1175 2209 1959 2209 
L 2766 2209 
L 2766 2266 
Q 2766 2663 2505 2880 
Q 2244 3097 1772 3097 
Q 1472 3097 1187 3025 
Q 903 2953 641 2809 
L 641 3341 
Q 956 3463 1253 3523 
Q 1550 3584 1831 3584 
Q 2591 3584 2966 3190 
Q 3341 2797 3341 1997 
z
" transform="scale(0.015625)"/>
        <path id="DejaVuSans-74" d="M 1172 4494 
L 1172 3500 
L 2356 3500 
L 2356 3053 
L 1172 3053 
L 1172 1153 
Q 1172 725 1289 603 
Q 1406 481 1766 481 
L 2356 481 
L 2356 0 
L 1766 0 
Q 1100 0 847 248 
Q 594 497 594 1153 
L 594 3053 
L 172 3053 
L 172 3500 
L 594 3500 
L 594 4494 
L 1172 4494 
z
" transform="scale(0.015625)"/>
        <path id="DejaVuSans-2c" d="M 750 794 
L 1409 794 
L 1409 256 
L 897 -744 
L 494 -744 
L 750 256 
L 750 794 
z
" transform="scale(0.015625)"/>
        <path id="DejaVuSans-20" transform="scale(0.015625)"/>
        <path id="DejaVuSans-2d" d="M 313 2009 
L 1997 2009 
L 1997 1497 
L 313 1497 
L 313 2009 
z
" transform="scale(0.015625)"/>
       </defs>
       <use xlink:href="#DejaVuSans-53"/>
       <use xlink:href="#DejaVuSans-61" x="63.476562"/>
       <use xlink:href="#DejaVuSans-74" x="124.755859"/>
       <use xlink:href="#DejaVuSans-2c" x="163.964844"/>
       <use xlink:href="#DejaVuSans-20" x="195.751953"/>
       <use xlink:href="#DejaVuSans-32" x="227.539062"/>
       <use xlink:href="#DejaVuSans-30" x="291.162109"/>
       <use xlink:href="#DejaVuSans-32" x="354.785156"/>
       <use xlink:href="#DejaVuSans-33" x="418.408203"/>
       <use xlink:href="#DejaVuSans-2d" x="482.03125"/>
       <use xlink:href="#DejaVuSans-31" x="518.115234"/>
       <use xlink:href="#DejaVuSans-31" x="581.738281"/>
       <use xlink:href="#DejaVuSans-2d" x="645.361328"/>
       <use xlink:href="#DejaVuSans-31" x="681.445312"/>
       <use xlink:href="#DejaVuSans-38" x="745.068359"/>
      </g>
     </g>
    </g>
    <g id="xtick_9">
     <g id="line2d_30">
      <path d="M 129.454318 274.984504 
L 129.454318 141.928504 
" clip-path="url(#pe2bf067e50)" style="fill: none; stroke: #b0b0b0; stroke-width: 0.8; stroke-linecap: square"/>
     </g>
     <g id="line2d_31">
      <g>
       <use xlink:href="#mad9c7c60c0" x="129.454318" y="274.984504" style="stroke: #000000; stroke-width: 0.8"/>
      </g>
     </g>
     <g id="text_15">
      <!-- Sun, 2023-11-19 -->
      <g transform="translate(132.213693 365.479816)rotate(-90)scale(0.1 -0.1)">
       <defs>
        <path id="DejaVuSans-75" d="M 544 1381 
L 544 3500 
L 1119 3500 
L 1119 1403 
Q 1119 906 1312 657 
Q 1506 409 1894 409 
Q 2359 409 2629 706 
Q 2900 1003 2900 1516 
L 2900 3500 
L 3475 3500 
L 3475 0 
L 2900 0 
L 2900 538 
Q 2691 219 2414 64 
Q 2138 -91 1772 -91 
Q 1169 -91 856 284 
Q 544 659 544 1381 
z
M 1991 3584 
L 1991 3584 
z
" transform="scale(0.015625)"/>
        <path id="DejaVuSans-6e" d="M 3513 2113 
L 3513 0 
L 2938 0 
L 2938 2094 
Q 2938 2591 2744 2837 
Q 2550 3084 2163 3084 
Q 1697 3084 1428 2787 
Q 1159 2491 1159 1978 
L 1159 0 
L 581 0 
L 581 3500 
L 1159 3500 
L 1159 2956 
Q 1366 3272 1645 3428 
Q 1925 3584 2291 3584 
Q 2894 3584 3203 3211 
Q 3513 2838 3513 2113 
z
" transform="scale(0.015625)"/>
       </defs>
       <use xlink:href="#DejaVuSans-53"/>
       <use xlink:href="#DejaVuSans-75" x="63.476562"/>
       <use xlink:href="#DejaVuSans-6e" x="126.855469"/>
       <use xlink:href="#DejaVuSans-2c" x="190.234375"/>
       <use xlink:href="#DejaVuSans-20" x="222.021484"/>
       <use xlink:href="#DejaVuSans-32" x="253.808594"/>
       <use xlink:href="#DejaVuSans-30" x="317.431641"/>
       <use xlink:href="#DejaVuSans-32" x="381.054688"/>
       <use xlink:href="#DejaVuSans-33" x="444.677734"/>
       <use xlink:href="#DejaVuSans-2d" x="508.300781"/>
       <use xlink:href="#DejaVuSans-31" x="544.384766"/>
       <use xlink:href="#DejaVuSans-31" x="608.007812"/>
       <use xlink:href="#DejaVuSans-2d" x="671.630859"/>
       <use xlink:href="#DejaVuSans-31" x="707.714844"/>
       <use xlink:href="#DejaVuSans-39" x="771.337891"/>
      </g>
     </g>
    </g>
    <g id="xtick_10">
     <g id="line2d_32">
      <path d="M 183.563409 274.984504 
L 183.563409 141.928504 
" clip-path="url(#pe2bf067e50)" style="fill: none; stroke: #b0b0b0; stroke-width: 0.8; stroke-linecap: square"/>
     </g>
     <g id="line2d_33">
      <g>
       <use xlink:href="#mad9c7c60c0" x="183.563409" y="274.984504" style="stroke: #000000; stroke-width: 0.8"/>
      </g>
     </g>
     <g id="text_16">
      <!-- Mon, 2023-11-20 -->
      <g transform="translate(186.322784 367.540754)rotate(-90)scale(0.1 -0.1)">
       <defs>
        <path id="DejaVuSans-4d" d="M 628 4666 
L 1569 4666 
L 2759 1491 
L 3956 4666 
L 4897 4666 
L 4897 0 
L 4281 0 
L 4281 4097 
L 3078 897 
L 2444 897 
L 1241 4097 
L 1241 0 
L 628 0 
L 628 4666 
z
" transform="scale(0.015625)"/>
        <path id="DejaVuSans-6f" d="M 1959 3097 
Q 1497 3097 1228 2736 
Q 959 2375 959 1747 
Q 959 1119 1226 758 
Q 1494 397 1959 397 
Q 2419 397 2687 759 
Q 2956 1122 2956 1747 
Q 2956 2369 2687 2733 
Q 2419 3097 1959 3097 
z
M 1959 3584 
Q 2709 3584 3137 3096 
Q 3566 2609 3566 1747 
Q 3566 888 3137 398 
Q 2709 -91 1959 -91 
Q 1206 -91 779 398 
Q 353 888 353 1747 
Q 353 2609 779 3096 
Q 1206 3584 1959 3584 
z
" transform="scale(0.015625)"/>
       </defs>
       <use xlink:href="#DejaVuSans-4d"/>
       <use xlink:href="#DejaVuSans-6f" x="86.279297"/>
       <use xlink:href="#DejaVuSans-6e" x="147.460938"/>
       <use xlink:href="#DejaVuSans-2c" x="210.839844"/>
       <use xlink:href="#DejaVuSans-20" x="242.626953"/>
       <use xlink:href="#DejaVuSans-32" x="274.414062"/>
       <use xlink:href="#DejaVuSans-30" x="338.037109"/>
       <use xlink:href="#DejaVuSans-32" x="401.660156"/>
       <use xlink:href="#DejaVuSans-33" x="465.283203"/>
       <use xlink:href="#DejaVuSans-2d" x="528.90625"/>
       <use xlink:href="#DejaVuSans-31" x="564.990234"/>
       <use xlink:href="#DejaVuSans-31" x="628.613281"/>
       <use xlink:href="#DejaVuSans-2d" x="692.236328"/>
       <use xlink:href="#DejaVuSans-32" x="728.320312"/>
       <use xlink:href="#DejaVuSans-30" x="791.943359"/>
      </g>
     </g>
    </g>
    <g id="xtick_11">
     <g id="line2d_34">
      <path d="M 237.6725 274.984504 
L 237.6725 141.928504 
" clip-path="url(#pe2bf067e50)" style="fill: none; stroke: #b0b0b0; stroke-width: 0.8; stroke-linecap: square"/>
     </g>
     <g id="line2d_35">
      <g>
       <use xlink:href="#mad9c7c60c0" x="237.6725" y="274.984504" style="stroke: #000000; stroke-width: 0.8"/>
      </g>
     </g>
     <g id="text_17">
      <!-- Tues, 2023-11-21 -->
      <g transform="translate(240.431875 368.751691)rotate(-90)scale(0.1 -0.1)">
       <defs>
        <path id="DejaVuSans-54" d="M -19 4666 
L 3928 4666 
L 3928 4134 
L 2272 4134 
L 2272 0 
L 1638 0 
L 1638 4134 
L -19 4134 
L -19 4666 
z
" transform="scale(0.015625)"/>
        <path id="DejaVuSans-65" d="M 3597 1894 
L 3597 1613 
L 953 1613 
Q 991 1019 1311 708 
Q 1631 397 2203 397 
Q 2534 397 2845 478 
Q 3156 559 3463 722 
L 3463 178 
Q 3153 47 2828 -22 
Q 2503 -91 2169 -91 
Q 1331 -91 842 396 
Q 353 884 353 1716 
Q 353 2575 817 3079 
Q 1281 3584 2069 3584 
Q 2775 3584 3186 3129 
Q 3597 2675 3597 1894 
z
M 3022 2063 
Q 3016 2534 2758 2815 
Q 2500 3097 2075 3097 
Q 1594 3097 1305 2825 
Q 1016 2553 972 2059 
L 3022 2063 
z
" transform="scale(0.015625)"/>
        <path id="DejaVuSans-73" d="M 2834 3397 
L 2834 2853 
Q 2591 2978 2328 3040 
Q 2066 3103 1784 3103 
Q 1356 3103 1142 2972 
Q 928 2841 928 2578 
Q 928 2378 1081 2264 
Q 1234 2150 1697 2047 
L 1894 2003 
Q 2506 1872 2764 1633 
Q 3022 1394 3022 966 
Q 3022 478 2636 193 
Q 2250 -91 1575 -91 
Q 1294 -91 989 -36 
Q 684 19 347 128 
L 347 722 
Q 666 556 975 473 
Q 1284 391 1588 391 
Q 1994 391 2212 530 
Q 2431 669 2431 922 
Q 2431 1156 2273 1281 
Q 2116 1406 1581 1522 
L 1381 1569 
Q 847 1681 609 1914 
Q 372 2147 372 2553 
Q 372 3047 722 3315 
Q 1072 3584 1716 3584 
Q 2034 3584 2315 3537 
Q 2597 3491 2834 3397 
z
" transform="scale(0.015625)"/>
       </defs>
       <use xlink:href="#DejaVuSans-54"/>
       <use xlink:href="#DejaVuSans-75" x="45.958984"/>
       <use xlink:href="#DejaVuSans-65" x="109.337891"/>
       <use xlink:href="#DejaVuSans-73" x="170.861328"/>
       <use xlink:href="#DejaVuSans-2c" x="222.960938"/>
       <use xlink:href="#DejaVuSans-20" x="254.748047"/>
       <use xlink:href="#DejaVuSans-32" x="286.535156"/>
       <use xlink:href="#DejaVuSans-30" x="350.158203"/>
       <use xlink:href="#DejaVuSans-32" x="413.78125"/>
       <use xlink:href="#DejaVuSans-33" x="477.404297"/>
       <use xlink:href="#DejaVuSans-2d" x="541.027344"/>
       <use xlink:href="#DejaVuSans-31" x="577.111328"/>
       <use xlink:href="#DejaVuSans-31" x="640.734375"/>
       <use xlink:href="#DejaVuSans-2d" x="704.357422"/>
       <use xlink:href="#DejaVuSans-32" x="740.441406"/>
       <use xlink:href="#DejaVuSans-31" x="804.064453"/>
      </g>
     </g>
    </g>
    <g id="xtick_12">
     <g id="line2d_36">
      <path d="M 291.781591 274.984504 
L 291.781591 141.928504 
" clip-path="url(#pe2bf067e50)" style="fill: none; stroke: #b0b0b0; stroke-width: 0.8; stroke-linecap: square"/>
     </g>
     <g id="line2d_37">
      <g>
       <use xlink:href="#mad9c7c60c0" x="291.781591" y="274.984504" style="stroke: #000000; stroke-width: 0.8"/>
      </g>
     </g>
     <g id="text_18">
      <!-- Weds, 2023-11-22 -->
      <g transform="translate(294.540966 373.467316)rotate(-90)scale(0.1 -0.1)">
       <defs>
        <path id="DejaVuSans-57" d="M 213 4666 
L 850 4666 
L 1831 722 
L 2809 4666 
L 3519 4666 
L 4500 722 
L 5478 4666 
L 6119 4666 
L 4947 0 
L 4153 0 
L 3169 4050 
L 2175 0 
L 1381 0 
L 213 4666 
z
" transform="scale(0.015625)"/>
        <path id="DejaVuSans-64" d="M 2906 2969 
L 2906 4863 
L 3481 4863 
L 3481 0 
L 2906 0 
L 2906 525 
Q 2725 213 2448 61 
Q 2172 -91 1784 -91 
Q 1150 -91 751 415 
Q 353 922 353 1747 
Q 353 2572 751 3078 
Q 1150 3584 1784 3584 
Q 2172 3584 2448 3432 
Q 2725 3281 2906 2969 
z
M 947 1747 
Q 947 1113 1208 752 
Q 1469 391 1925 391 
Q 2381 391 2643 752 
Q 2906 1113 2906 1747 
Q 2906 2381 2643 2742 
Q 2381 3103 1925 3103 
Q 1469 3103 1208 2742 
Q 947 2381 947 1747 
z
" transform="scale(0.015625)"/>
       </defs>
       <use xlink:href="#DejaVuSans-57"/>
       <use xlink:href="#DejaVuSans-65" x="93.001953"/>
       <use xlink:href="#DejaVuSans-64" x="154.525391"/>
       <use xlink:href="#DejaVuSans-73" x="218.001953"/>
       <use xlink:href="#DejaVuSans-2c" x="270.101562"/>
       <use xlink:href="#DejaVuSans-20" x="301.888672"/>
       <use xlink:href="#DejaVuSans-32" x="333.675781"/>
       <use xlink:href="#DejaVuSans-30" x="397.298828"/>
       <use xlink:href="#DejaVuSans-32" x="460.921875"/>
       <use xlink:href="#DejaVuSans-33" x="524.544922"/>
       <use xlink:href="#DejaVuSans-2d" x="588.167969"/>
       <use xlink:href="#DejaVuSans-31" x="624.251953"/>
       <use xlink:href="#DejaVuSans-31" x="687.875"/>
       <use xlink:href="#DejaVuSans-2d" x="751.498047"/>
       <use xlink:href="#DejaVuSans-32" x="787.582031"/>
       <use xlink:href="#DejaVuSans-32" x="851.205078"/>
      </g>
     </g>
    </g>
    <g id="xtick_13">
     <g id="line2d_38">
      <path d="M 345.890682 274.984504 
L 345.890682 141.928504 
" clip-path="url(#pe2bf067e50)" style="fill: none; stroke: #b0b0b0; stroke-width: 0.8; stroke-linecap: square"/>
     </g>
     <g id="line2d_39">
      <g>
       <use xlink:href="#mad9c7c60c0" x="345.890682" y="274.984504" style="stroke: #000000; stroke-width: 0.8"/>
      </g>
     </g>
     <g id="text_19">
      <!-- Thurs, 2023-11-23 -->
      <g transform="translate(348.650057 374.559504)rotate(-90)scale(0.1 -0.1)">
       <defs>
        <path id="DejaVuSans-68" d="M 3513 2113 
L 3513 0 
L 2938 0 
L 2938 2094 
Q 2938 2591 2744 2837 
Q 2550 3084 2163 3084 
Q 1697 3084 1428 2787 
Q 1159 2491 1159 1978 
L 1159 0 
L 581 0 
L 581 4863 
L 1159 4863 
L 1159 2956 
Q 1366 3272 1645 3428 
Q 1925 3584 2291 3584 
Q 2894 3584 3203 3211 
Q 3513 2838 3513 2113 
z
" transform="scale(0.015625)"/>
        <path id="DejaVuSans-72" d="M 2631 2963 
Q 2534 3019 2420 3045 
Q 2306 3072 2169 3072 
Q 1681 3072 1420 2755 
Q 1159 2438 1159 1844 
L 1159 0 
L 581 0 
L 581 3500 
L 1159 3500 
L 1159 2956 
Q 1341 3275 1631 3429 
Q 1922 3584 2338 3584 
Q 2397 3584 2469 3576 
Q 2541 3569 2628 3553 
L 2631 2963 
z
" transform="scale(0.015625)"/>
       </defs>
       <use xlink:href="#DejaVuSans-54"/>
       <use xlink:href="#DejaVuSans-68" x="61.083984"/>
       <use xlink:href="#DejaVuSans-75" x="124.462891"/>
       <use xlink:href="#DejaVuSans-72" x="187.841797"/>
       <use xlink:href="#DejaVuSans-73" x="228.955078"/>
       <use xlink:href="#DejaVuSans-2c" x="281.054688"/>
       <use xlink:href="#DejaVuSans-20" x="312.841797"/>
       <use xlink:href="#DejaVuSans-32" x="344.628906"/>
       <use xlink:href="#DejaVuSans-30" x="408.251953"/>
       <use xlink:href="#DejaVuSans-32" x="471.875"/>
       <use xlink:href="#DejaVuSans-33" x="535.498047"/>
       <use xlink:href="#DejaVuSans-2d" x="599.121094"/>
       <use xlink:href="#DejaVuSans-31" x="635.205078"/>
       <use xlink:href="#DejaVuSans-31" x="698.828125"/>
       <use xlink:href="#DejaVuSans-2d" x="762.451172"/>
       <use xlink:href="#DejaVuSans-32" x="798.535156"/>
       <use xlink:href="#DejaVuSans-33" x="862.158203"/>
      </g>
     </g>
    </g>
    <g id="xtick_14">
     <g id="line2d_40">
      <path d="M 399.999773 274.984504 
L 399.999773 141.928504 
" clip-path="url(#pe2bf067e50)" style="fill: none; stroke: #b0b0b0; stroke-width: 0.8; stroke-linecap: square"/>
     </g>
     <g id="line2d_41">
      <g>
       <use xlink:href="#mad9c7c60c0" x="399.999773" y="274.984504" style="stroke: #000000; stroke-width: 0.8"/>
      </g>
     </g>
     <g id="text_20">
      <!-- Fri, 2023-11-24 -->
      <g transform="translate(402.759148 358.372004)rotate(-90)scale(0.1 -0.1)">
       <defs>
        <path id="DejaVuSans-46" d="M 628 4666 
L 3309 4666 
L 3309 4134 
L 1259 4134 
L 1259 2759 
L 3109 2759 
L 3109 2228 
L 1259 2228 
L 1259 0 
L 628 0 
L 628 4666 
z
" transform="scale(0.015625)"/>
        <path id="DejaVuSans-69" d="M 603 3500 
L 1178 3500 
L 1178 0 
L 603 0 
L 603 3500 
z
M 603 4863 
L 1178 4863 
L 1178 4134 
L 603 4134 
L 603 4863 
z
" transform="scale(0.015625)"/>
       </defs>
       <use xlink:href="#DejaVuSans-46"/>
       <use xlink:href="#DejaVuSans-72" x="50.269531"/>
       <use xlink:href="#DejaVuSans-69" x="91.382812"/>
       <use xlink:href="#DejaVuSans-2c" x="119.166016"/>
       <use xlink:href="#DejaVuSans-20" x="150.953125"/>
       <use xlink:href="#DejaVuSans-32" x="182.740234"/>
       <use xlink:href="#DejaVuSans-30" x="246.363281"/>
       <use xlink:href="#DejaVuSans-32" x="309.986328"/>
       <use xlink:href="#DejaVuSans-33" x="373.609375"/>
       <use xlink:href="#DejaVuSans-2d" x="437.232422"/>
       <use xlink:href="#DejaVuSans-31" x="473.316406"/>
       <use xlink:href="#DejaVuSans-31" x="536.939453"/>
       <use xlink:href="#DejaVuSans-2d" x="600.5625"/>
       <use xlink:href="#DejaVuSans-32" x="636.646484"/>
       <use xlink:href="#DejaVuSans-34" x="700.269531"/>
      </g>
     </g>
    </g>
   </g>
   <g id="matplotlib.axis_4">
    <g id="ytick_7">
     <g id="line2d_42">
      <path d="M 59.1125 273.066006 
L 416.2325 273.066006 
" clip-path="url(#pe2bf067e50)" style="fill: none; stroke: #b0b0b0; stroke-width: 0.8; stroke-linecap: square"/>
     </g>
     <g id="line2d_43">
      <g>
       <use xlink:href="#mf4963f9c18" x="59.1125" y="273.066006" style="stroke: #000000; stroke-width: 0.8"/>
      </g>
     </g>
     <g id="text_21">
      <!-- 18:30:00 -->
      <g transform="translate(7.2 276.865225)scale(0.1 -0.1)">
       <use xlink:href="#DejaVuSans-31"/>
       <use xlink:href="#DejaVuSans-38" x="63.623047"/>
       <use xlink:href="#DejaVuSans-3a" x="127.246094"/>
       <use xlink:href="#DejaVuSans-33" x="160.9375"/>
       <use xlink:href="#DejaVuSans-30" x="224.560547"/>
       <use xlink:href="#DejaVuSans-3a" x="288.183594"/>
       <use xlink:href="#DejaVuSans-30" x="321.875"/>
       <use xlink:href="#DejaVuSans-30" x="385.498047"/>
      </g>
     </g>
    </g>
    <g id="ytick_8">
     <g id="line2d_44">
      <path d="M 59.1125 258.317784 
L 416.2325 258.317784 
" clip-path="url(#pe2bf067e50)" style="fill: none; stroke: #b0b0b0; stroke-width: 0.8; stroke-linecap: square"/>
     </g>
     <g id="line2d_45">
      <g>
       <use xlink:href="#mf4963f9c18" x="59.1125" y="258.317784" style="stroke: #000000; stroke-width: 0.8"/>
      </g>
     </g>
     <g id="text_22">
      <!-- 18:45:00 -->
      <g transform="translate(7.2 262.117003)scale(0.1 -0.1)">
       <use xlink:href="#DejaVuSans-31"/>
       <use xlink:href="#DejaVuSans-38" x="63.623047"/>
       <use xlink:href="#DejaVuSans-3a" x="127.246094"/>
       <use xlink:href="#DejaVuSans-34" x="160.9375"/>
       <use xlink:href="#DejaVuSans-35" x="224.560547"/>
       <use xlink:href="#DejaVuSans-3a" x="288.183594"/>
       <use xlink:href="#DejaVuSans-30" x="321.875"/>
       <use xlink:href="#DejaVuSans-30" x="385.498047"/>
      </g>
     </g>
    </g>
    <g id="ytick_9">
     <g id="line2d_46">
      <path d="M 59.1125 243.569562 
L 416.2325 243.569562 
" clip-path="url(#pe2bf067e50)" style="fill: none; stroke: #b0b0b0; stroke-width: 0.8; stroke-linecap: square"/>
     </g>
     <g id="line2d_47">
      <g>
       <use xlink:href="#mf4963f9c18" x="59.1125" y="243.569562" style="stroke: #000000; stroke-width: 0.8"/>
      </g>
     </g>
     <g id="text_23">
      <!-- 19:00:00 -->
      <g transform="translate(7.2 247.368781)scale(0.1 -0.1)">
       <use xlink:href="#DejaVuSans-31"/>
       <use xlink:href="#DejaVuSans-39" x="63.623047"/>
       <use xlink:href="#DejaVuSans-3a" x="127.246094"/>
       <use xlink:href="#DejaVuSans-30" x="160.9375"/>
       <use xlink:href="#DejaVuSans-30" x="224.560547"/>
       <use xlink:href="#DejaVuSans-3a" x="288.183594"/>
       <use xlink:href="#DejaVuSans-30" x="321.875"/>
       <use xlink:href="#DejaVuSans-30" x="385.498047"/>
      </g>
     </g>
    </g>
    <g id="ytick_10">
     <g id="line2d_48">
      <path d="M 59.1125 228.82134 
L 416.2325 228.82134 
" clip-path="url(#pe2bf067e50)" style="fill: none; stroke: #b0b0b0; stroke-width: 0.8; stroke-linecap: square"/>
     </g>
     <g id="line2d_49">
      <g>
       <use xlink:href="#mf4963f9c18" x="59.1125" y="228.82134" style="stroke: #000000; stroke-width: 0.8"/>
      </g>
     </g>
     <g id="text_24">
      <!-- 19:15:00 -->
      <g transform="translate(7.2 232.620559)scale(0.1 -0.1)">
       <use xlink:href="#DejaVuSans-31"/>
       <use xlink:href="#DejaVuSans-39" x="63.623047"/>
       <use xlink:href="#DejaVuSans-3a" x="127.246094"/>
       <use xlink:href="#DejaVuSans-31" x="160.9375"/>
       <use xlink:href="#DejaVuSans-35" x="224.560547"/>
       <use xlink:href="#DejaVuSans-3a" x="288.183594"/>
       <use xlink:href="#DejaVuSans-30" x="321.875"/>
       <use xlink:href="#DejaVuSans-30" x="385.498047"/>
      </g>
     </g>
    </g>
    <g id="ytick_11">
     <g id="line2d_50">
      <path d="M 59.1125 214.073118 
L 416.2325 214.073118 
" clip-path="url(#pe2bf067e50)" style="fill: none; stroke: #b0b0b0; stroke-width: 0.8; stroke-linecap: square"/>
     </g>
     <g id="line2d_51">
      <g>
       <use xlink:href="#mf4963f9c18" x="59.1125" y="214.073118" style="stroke: #000000; stroke-width: 0.8"/>
      </g>
     </g>
     <g id="text_25">
      <!-- 19:30:00 -->
      <g transform="translate(7.2 217.872337)scale(0.1 -0.1)">
       <use xlink:href="#DejaVuSans-31"/>
       <use xlink:href="#DejaVuSans-39" x="63.623047"/>
       <use xlink:href="#DejaVuSans-3a" x="127.246094"/>
       <use xlink:href="#DejaVuSans-33" x="160.9375"/>
       <use xlink:href="#DejaVuSans-30" x="224.560547"/>
       <use xlink:href="#DejaVuSans-3a" x="288.183594"/>
       <use xlink:href="#DejaVuSans-30" x="321.875"/>
       <use xlink:href="#DejaVuSans-30" x="385.498047"/>
      </g>
     </g>
    </g>
    <g id="ytick_12">
     <g id="line2d_52">
      <path d="M 59.1125 199.324896 
L 416.2325 199.324896 
" clip-path="url(#pe2bf067e50)" style="fill: none; stroke: #b0b0b0; stroke-width: 0.8; stroke-linecap: square"/>
     </g>
     <g id="line2d_53">
      <g>
       <use xlink:href="#mf4963f9c18" x="59.1125" y="199.324896" style="stroke: #000000; stroke-width: 0.8"/>
      </g>
     </g>
     <g id="text_26">
      <!-- 19:45:00 -->
      <g transform="translate(7.2 203.124115)scale(0.1 -0.1)">
       <use xlink:href="#DejaVuSans-31"/>
       <use xlink:href="#DejaVuSans-39" x="63.623047"/>
       <use xlink:href="#DejaVuSans-3a" x="127.246094"/>
       <use xlink:href="#DejaVuSans-34" x="160.9375"/>
       <use xlink:href="#DejaVuSans-35" x="224.560547"/>
       <use xlink:href="#DejaVuSans-3a" x="288.183594"/>
       <use xlink:href="#DejaVuSans-30" x="321.875"/>
       <use xlink:href="#DejaVuSans-30" x="385.498047"/>
      </g>
     </g>
    </g>
    <g id="ytick_13">
     <g id="line2d_54">
      <path d="M 59.1125 184.576674 
L 416.2325 184.576674 
" clip-path="url(#pe2bf067e50)" style="fill: none; stroke: #b0b0b0; stroke-width: 0.8; stroke-linecap: square"/>
     </g>
     <g id="line2d_55">
      <g>
       <use xlink:href="#mf4963f9c18" x="59.1125" y="184.576674" style="stroke: #000000; stroke-width: 0.8"/>
      </g>
     </g>
     <g id="text_27">
      <!-- 20:00:00 -->
      <g transform="translate(7.2 188.375893)scale(0.1 -0.1)">
       <use xlink:href="#DejaVuSans-32"/>
       <use xlink:href="#DejaVuSans-30" x="63.623047"/>
       <use xlink:href="#DejaVuSans-3a" x="127.246094"/>
       <use xlink:href="#DejaVuSans-30" x="160.9375"/>
       <use xlink:href="#DejaVuSans-30" x="224.560547"/>
       <use xlink:href="#DejaVuSans-3a" x="288.183594"/>
       <use xlink:href="#DejaVuSans-30" x="321.875"/>
       <use xlink:href="#DejaVuSans-30" x="385.498047"/>
      </g>
     </g>
    </g>
    <g id="ytick_14">
     <g id="line2d_56">
      <path d="M 59.1125 169.828453 
L 416.2325 169.828453 
" clip-path="url(#pe2bf067e50)" style="fill: none; stroke: #b0b0b0; stroke-width: 0.8; stroke-linecap: square"/>
     </g>
     <g id="line2d_57">
      <g>
       <use xlink:href="#mf4963f9c18" x="59.1125" y="169.828453" style="stroke: #000000; stroke-width: 0.8"/>
      </g>
     </g>
     <g id="text_28">
      <!-- 20:15:00 -->
      <g transform="translate(7.2 173.627671)scale(0.1 -0.1)">
       <use xlink:href="#DejaVuSans-32"/>
       <use xlink:href="#DejaVuSans-30" x="63.623047"/>
       <use xlink:href="#DejaVuSans-3a" x="127.246094"/>
       <use xlink:href="#DejaVuSans-31" x="160.9375"/>
       <use xlink:href="#DejaVuSans-35" x="224.560547"/>
       <use xlink:href="#DejaVuSans-3a" x="288.183594"/>
       <use xlink:href="#DejaVuSans-30" x="321.875"/>
       <use xlink:href="#DejaVuSans-30" x="385.498047"/>
      </g>
     </g>
    </g>
    <g id="ytick_15">
     <g id="line2d_58">
      <path d="M 59.1125 155.080231 
L 416.2325 155.080231 
" clip-path="url(#pe2bf067e50)" style="fill: none; stroke: #b0b0b0; stroke-width: 0.8; stroke-linecap: square"/>
     </g>
     <g id="line2d_59">
      <g>
       <use xlink:href="#mf4963f9c18" x="59.1125" y="155.080231" style="stroke: #000000; stroke-width: 0.8"/>
      </g>
     </g>
     <g id="text_29">
      <!-- 20:30:00 -->
      <g transform="translate(7.2 158.879449)scale(0.1 -0.1)">
       <use xlink:href="#DejaVuSans-32"/>
       <use xlink:href="#DejaVuSans-30" x="63.623047"/>
       <use xlink:href="#DejaVuSans-3a" x="127.246094"/>
       <use xlink:href="#DejaVuSans-33" x="160.9375"/>
       <use xlink:href="#DejaVuSans-30" x="224.560547"/>
       <use xlink:href="#DejaVuSans-3a" x="288.183594"/>
       <use xlink:href="#DejaVuSans-30" x="321.875"/>
       <use xlink:href="#DejaVuSans-30" x="385.498047"/>
      </g>
     </g>
    </g>
   </g>
   <g id="line2d_60">
    <path d="M 75.345227 186.03511 
L 129.454318 183.232948 
L 183.563409 239.44006 
L 237.6725 209.599491 
L 291.781591 191.295309 
L 345.890682 188.673403 
L 399.999773 267.920515 
" clip-path="url(#pe2bf067e50)" style="fill: none; stroke: #1f77b4; stroke-width: 1.5; stroke-linecap: square"/>
   </g>
   <g id="line2d_61">
    <path d="M 75.345227 213.360288 
L 399.999773 213.360288 
" clip-path="url(#pe2bf067e50)" style="fill: none; stroke-dasharray: 5.55,2.4; stroke-dashoffset: 0; stroke: #ff7f0e; stroke-width: 1.5"/>
   </g>
   <g id="patch_8">
    <path d="M 59.1125 274.984504 
L 59.1125 141.928504 
" style="fill: none; stroke: #000000; stroke-width: 0.8; stroke-linejoin: miter; stroke-linecap: square"/>
   </g>
   <g id="patch_9">
    <path d="M 416.2325 274.984504 
L 416.2325 141.928504 
" style="fill: none; stroke: #000000; stroke-width: 0.8; stroke-linejoin: miter; stroke-linecap: square"/>
   </g>
   <g id="patch_10">
    <path d="M 59.1125 274.984504 
L 416.2325 274.984504 
" style="fill: none; stroke: #000000; stroke-width: 0.8; stroke-linejoin: miter; stroke-linecap: square"/>
   </g>
   <g id="patch_11">
    <path d="M 59.1125 141.928504 
L 416.2325 141.928504 
" style="fill: none; stroke: #000000; stroke-width: 0.8; stroke-linejoin: miter; stroke-linecap: square"/>
   </g>
  </g>
 </g>
 <defs>
  <clipPath id="p0dbee53938">
   <rect x="59.1125" y="8.872504" width="357.12" height="133.056"/>
  </clipPath>
  <clipPath id="pe2bf067e50">
   <rect x="59.1125" y="141.928504" width="357.12" height="133.056"/>
  </clipPath>
 </defs>
</svg>
