<?xml version="1.0" encoding="utf-8" standalone="no"?>
<!DOCTYPE svg PUBLIC "-//W3C//DTD SVG 1.1//EN"
  "http://www.w3.org/Graphics/SVG/1.1/DTD/svg11.dtd">
<svg xmlns:xlink="http://www.w3.org/1999/xlink" width="511.237pt" height="381.644025pt" viewBox="0 0 511.237 381.644025" xmlns="http://www.w3.org/2000/svg" version="1.1">
 <metadata>
  <rdf:RDF xmlns:dc="http://purl.org/dc/elements/1.1/" xmlns:cc="http://creativecommons.org/ns#" xmlns:rdf="http://www.w3.org/1999/02/22-rdf-syntax-ns#">
   <cc:Work>
    <dc:type rdf:resource="http://purl.org/dc/dcmitype/StillImage"/>
    <dc:date>2023-11-26T10:20:30.999364</dc:date>
    <dc:format>image/svg+xml</dc:format>
    <dc:creator>
     <cc:Agent>
      <dc:title>Matplotlib v3.5.3, https://matplotlib.org/</dc:title>
     </cc:Agent>
    </dc:creator>
   </cc:Work>
  </rdf:RDF>
 </metadata>
 <defs>
  <style type="text/css">*{stroke-linejoin: round; stroke-linecap: butt}</style>
 </defs>
 <g id="figure_1">
  <g id="patch_1">
   <path d="M 0 381.644025 
L 511.237 381.644025 
L 511.237 0 
L 0 0 
z
" style="fill: #ffffff"/>
  </g>
  <g id="axes_1">
   <g id="patch_2">
    <path d="M 26.925 274.869025 
L 384.045 274.869025 
L 384.045 8.757025 
L 26.925 8.757025 
z
" style="fill: #ffffff"/>
   </g>
   <g id="patch_3">
    <path d="M 43.157727 274.869025 
L 75.090961 274.869025 
L 75.090961 217.604496 
L 43.157727 217.604496 
z
" clip-path="url(#p0094e3a6e9)" style="fill: #1f77b4"/>
   </g>
   <g id="patch_4">
    <path d="M 83.07427 274.869025 
L 115.007504 274.869025 
L 115.007504 175.669497 
L 83.07427 175.669497 
z
" clip-path="url(#p0094e3a6e9)" style="fill: #1f77b4"/>
   </g>
   <g id="patch_5">
    <path d="M 122.990812 274.869025 
L 154.924046 274.869025 
L 154.924046 167.387069 
L 122.990812 167.387069 
z
" clip-path="url(#p0094e3a6e9)" style="fill: #1f77b4"/>
   </g>
   <g id="patch_6">
    <path d="M 162.907355 274.869025 
L 194.840589 274.869025 
L 194.840589 171.868715 
L 162.907355 171.868715 
z
" clip-path="url(#p0094e3a6e9)" style="fill: #1f77b4"/>
   </g>
   <g id="patch_7">
    <path d="M 202.823897 274.869025 
L 234.757131 274.869025 
L 234.757131 170.417926 
L 202.823897 170.417926 
z
" clip-path="url(#p0094e3a6e9)" style="fill: #1f77b4"/>
   </g>
   <g id="patch_8">
    <path d="M 242.74044 274.869025 
L 274.673674 274.869025 
L 274.673674 179.950044 
L 242.74044 179.950044 
z
" clip-path="url(#p0094e3a6e9)" style="fill: #1f77b4"/>
   </g>
   <g id="patch_9">
    <path d="M 282.656982 274.869025 
L 314.590216 274.869025 
L 314.590216 171.546956 
L 282.656982 171.546956 
z
" clip-path="url(#p0094e3a6e9)" style="fill: #1f77b4"/>
   </g>
   <g id="patch_10">
    <path d="M 335.879039 274.869025 
L 367.812273 274.869025 
L 367.812273 179.206386 
L 335.879039 179.206386 
z
" clip-path="url(#p0094e3a6e9)" style="fill: #1f77b4"/>
   </g>
   <g id="patch_11">
    <path d="M 43.157727 217.604496 
L 75.090961 217.604496 
L 75.090961 217.604496 
L 43.157727 217.604496 
z
" clip-path="url(#p0094e3a6e9)" style="fill: #ff7f0e"/>
   </g>
   <g id="patch_12">
    <path d="M 83.07427 175.669497 
L 115.007504 175.669497 
L 115.007504 167.320993 
L 83.07427 167.320993 
z
" clip-path="url(#p0094e3a6e9)" style="fill: #ff7f0e"/>
   </g>
   <g id="patch_13">
    <path d="M 122.990812 167.387069 
L 154.924046 167.387069 
L 154.924046 143.536663 
L 122.990812 143.536663 
z
" clip-path="url(#p0094e3a6e9)" style="fill: #ff7f0e"/>
   </g>
   <g id="patch_14">
    <path d="M 162.907355 171.868715 
L 194.840589 171.868715 
L 194.840589 138.928611 
L 162.907355 138.928611 
z
" clip-path="url(#p0094e3a6e9)" style="fill: #ff7f0e"/>
   </g>
   <g id="patch_15">
    <path d="M 202.823897 170.417926 
L 234.757131 170.417926 
L 234.757131 159.498221 
L 202.823897 159.498221 
z
" clip-path="url(#p0094e3a6e9)" style="fill: #ff7f0e"/>
   </g>
   <g id="patch_16">
    <path d="M 242.74044 179.950044 
L 274.673674 179.950044 
L 274.673674 179.950044 
L 242.74044 179.950044 
z
" clip-path="url(#p0094e3a6e9)" style="fill: #ff7f0e"/>
   </g>
   <g id="patch_17">
    <path d="M 282.656982 171.546956 
L 314.590216 171.546956 
L 314.590216 170.676482 
L 282.656982 170.676482 
z
" clip-path="url(#p0094e3a6e9)" style="fill: #ff7f0e"/>
   </g>
   <g id="patch_18">
    <path d="M 335.879039 179.206386 
L 367.812273 179.206386 
L 367.812273 168.216501 
L 335.879039 168.216501 
z
" clip-path="url(#p0094e3a6e9)" style="fill: #ff7f0e"/>
   </g>
   <g id="patch_19">
    <path d="M 43.157727 217.604496 
L 75.090961 217.604496 
L 75.090961 211.413503 
L 43.157727 211.413503 
z
" clip-path="url(#p0094e3a6e9)" style="fill: #2ca02c"/>
   </g>
   <g id="patch_20">
    <path d="M 83.07427 167.320993 
L 115.007504 167.320993 
L 115.007504 155.792244 
L 83.07427 155.792244 
z
" clip-path="url(#p0094e3a6e9)" style="fill: #2ca02c"/>
   </g>
   <g id="patch_21">
    <path d="M 122.990812 143.536663 
L 154.924046 143.536663 
L 154.924046 119.692004 
L 122.990812 119.692004 
z
" clip-path="url(#p0094e3a6e9)" style="fill: #2ca02c"/>
   </g>
   <g id="patch_22">
    <path d="M 162.907355 138.928611 
L 194.840589 138.928611 
L 194.840589 124.538503 
L 162.907355 124.538503 
z
" clip-path="url(#p0094e3a6e9)" style="fill: #2ca02c"/>
   </g>
   <g id="patch_23">
    <path d="M 202.823897 159.498221 
L 234.757131 159.498221 
L 234.757131 136.228132 
L 202.823897 136.228132 
z
" clip-path="url(#p0094e3a6e9)" style="fill: #2ca02c"/>
   </g>
   <g id="patch_24">
    <path d="M 242.74044 179.950044 
L 274.673674 179.950044 
L 274.673674 166.105777 
L 242.74044 166.105777 
z
" clip-path="url(#p0094e3a6e9)" style="fill: #2ca02c"/>
   </g>
   <g id="patch_25">
    <path d="M 282.656982 170.676482 
L 314.590216 170.676482 
L 314.590216 147.277115 
L 282.656982 147.277115 
z
" clip-path="url(#p0094e3a6e9)" style="fill: #2ca02c"/>
   </g>
   <g id="patch_26">
    <path d="M 335.879039 168.216501 
L 367.812273 168.216501 
L 367.812273 151.578183 
L 335.879039 151.578183 
z
" clip-path="url(#p0094e3a6e9)" style="fill: #2ca02c"/>
   </g>
   <g id="patch_27">
    <path d="M 43.157727 211.413503 
L 75.090961 211.413503 
L 75.090961 173.353979 
L 43.157727 173.353979 
z
" clip-path="url(#p0094e3a6e9)" style="fill: #d62728"/>
   </g>
   <g id="patch_28">
    <path d="M 83.07427 155.792244 
L 115.007504 155.792244 
L 115.007504 46.612433 
L 83.07427 46.612433 
z
" clip-path="url(#p0094e3a6e9)" style="fill: #d62728"/>
   </g>
   <g id="patch_29">
    <path d="M 122.990812 119.692004 
L 154.924046 119.692004 
L 154.924046 68.799457 
L 122.990812 68.799457 
z
" clip-path="url(#p0094e3a6e9)" style="fill: #d62728"/>
   </g>
   <g id="patch_30">
    <path d="M 162.907355 124.538503 
L 194.840589 124.538503 
L 194.840589 49.657654 
L 162.907355 49.657654 
z
" clip-path="url(#p0094e3a6e9)" style="fill: #d62728"/>
   </g>
   <g id="patch_31">
    <path d="M 202.823897 136.228132 
L 234.757131 136.228132 
L 234.757131 45.345506 
L 202.823897 45.345506 
z
" clip-path="url(#p0094e3a6e9)" style="fill: #d62728"/>
   </g>
   <g id="patch_32">
    <path d="M 242.74044 166.105777 
L 274.673674 166.105777 
L 274.673674 38.252438 
L 242.74044 38.252438 
z
" clip-path="url(#p0094e3a6e9)" style="fill: #d62728"/>
   </g>
   <g id="patch_33">
    <path d="M 282.656982 147.277115 
L 314.590216 147.277115 
L 314.590216 82.333456 
L 282.656982 82.333456 
z
" clip-path="url(#p0094e3a6e9)" style="fill: #d62728"/>
   </g>
   <g id="patch_34">
    <path d="M 335.879039 151.578183 
L 367.812273 151.578183 
L 367.812273 72.050703 
L 335.879039 72.050703 
z
" clip-path="url(#p0094e3a6e9)" style="fill: #d62728"/>
   </g>
   <g id="patch_35">
    <path d="M 43.157727 173.353979 
L 75.090961 173.353979 
L 75.090961 39.286664 
L 43.157727 39.286664 
z
" clip-path="url(#p0094e3a6e9)" style="fill: #9467bd"/>
   </g>
   <g id="patch_36">
    <path d="M 83.07427 46.612433 
L 115.007504 46.612433 
L 115.007504 26.163483 
L 83.07427 26.163483 
z
" clip-path="url(#p0094e3a6e9)" style="fill: #9467bd"/>
   </g>
   <g id="patch_37">
    <path d="M 122.990812 68.799457 
L 154.924046 68.799457 
L 154.924046 36.508617 
L 122.990812 36.508617 
z
" clip-path="url(#p0094e3a6e9)" style="fill: #9467bd"/>
   </g>
   <g id="patch_38">
    <path d="M 162.907355 49.657654 
L 194.840589 49.657654 
L 194.840589 21.429025 
L 162.907355 21.429025 
z
" clip-path="url(#p0094e3a6e9)" style="fill: #9467bd"/>
   </g>
   <g id="patch_39">
    <path d="M 202.823897 45.345506 
L 234.757131 45.345506 
L 234.757131 23.448639 
L 202.823897 23.448639 
z
" clip-path="url(#p0094e3a6e9)" style="fill: #9467bd"/>
   </g>
   <g id="patch_40">
    <path d="M 242.74044 38.252438 
L 274.673674 38.252438 
L 274.673674 26.195084 
L 242.74044 26.195084 
z
" clip-path="url(#p0094e3a6e9)" style="fill: #9467bd"/>
   </g>
   <g id="patch_41">
    <path d="M 282.656982 82.333456 
L 314.590216 82.333456 
L 314.590216 40.547845 
L 282.656982 40.547845 
z
" clip-path="url(#p0094e3a6e9)" style="fill: #9467bd"/>
   </g>
   <g id="patch_42">
    <path d="M 335.879039 72.050703 
L 367.812273 72.050703 
L 367.812273 30.511337 
L 335.879039 30.511337 
z
" clip-path="url(#p0094e3a6e9)" style="fill: #9467bd"/>
   </g>
   <g id="matplotlib.axis_1">
    <g id="xtick_1">
     <g id="line2d_1">
      <path d="M 59.124344 274.869025 
L 59.124344 8.757025 
" clip-path="url(#p0094e3a6e9)" style="fill: none; stroke: #b0b0b0; stroke-width: 0.8; stroke-linecap: square"/>
     </g>
     <g id="line2d_2">
      <defs>
       <path id="m31982825df" d="M 0 0 
L 0 3.5 
" style="stroke: #000000; stroke-width: 0.8"/>
      </defs>
      <g>
       <use xlink:href="#m31982825df" x="59.124344" y="274.869025" style="stroke: #000000; stroke-width: 0.8"/>
      </g>
     </g>
     <g id="text_1">
      <!-- Sat, 2023-11-18 -->
      <g transform="translate(61.883719 362.737775)rotate(-90)scale(0.1 -0.1)">
       <defs>
        <path id="DejaVuSans-53" d="M 3425 4513 
L 3425 3897 
Q 3066 4069 2747 4153 
Q 2428 4238 2131 4238 
Q 1616 4238 1336 4038 
Q 1056 3838 1056 3469 
Q 1056 3159 1242 3001 
Q 1428 2844 1947 2747 
L 2328 2669 
Q 3034 2534 3370 2195 
Q 3706 1856 3706 1288 
Q 3706 609 3251 259 
Q 2797 -91 1919 -91 
Q 1588 -91 1214 -16 
Q 841 59 441 206 
L 441 856 
Q 825 641 1194 531 
Q 1563 422 1919 422 
Q 2459 422 2753 634 
Q 3047 847 3047 1241 
Q 3047 1584 2836 1778 
Q 2625 1972 2144 2069 
L 1759 2144 
Q 1053 2284 737 2584 
Q 422 2884 422 3419 
Q 422 4038 858 4394 
Q 1294 4750 2059 4750 
Q 2388 4750 2728 4690 
Q 3069 4631 3425 4513 
z
" transform="scale(0.015625)"/>
        <path id="DejaVuSans-61" d="M 2194 1759 
Q 1497 1759 1228 1600 
Q 959 1441 959 1056 
Q 959 750 1161 570 
Q 1363 391 1709 391 
Q 2188 391 2477 730 
Q 2766 1069 2766 1631 
L 2766 1759 
L 2194 1759 
z
M 3341 1997 
L 3341 0 
L 2766 0 
L 2766 531 
Q 2569 213 2275 61 
Q 1981 -91 1556 -91 
Q 1019 -91 701 211 
Q 384 513 384 1019 
Q 384 1609 779 1909 
Q 1175 2209 1959 2209 
L 2766 2209 
L 2766 2266 
Q 2766 2663 2505 2880 
Q 2244 3097 1772 3097 
Q 1472 3097 1187 3025 
Q 903 2953 641 2809 
L 641 3341 
Q 956 3463 1253 3523 
Q 1550 3584 1831 3584 
Q 2591 3584 2966 3190 
Q 3341 2797 3341 1997 
z
" transform="scale(0.015625)"/>
        <path id="DejaVuSans-74" d="M 1172 4494 
L 1172 3500 
L 2356 3500 
L 2356 3053 
L 1172 3053 
L 1172 1153 
Q 1172 725 1289 603 
Q 1406 481 1766 481 
L 2356 481 
L 2356 0 
L 1766 0 
Q 1100 0 847 248 
Q 594 497 594 1153 
L 594 3053 
L 172 3053 
L 172 3500 
L 594 3500 
L 594 4494 
L 1172 4494 
z
" transform="scale(0.015625)"/>
        <path id="DejaVuSans-2c" d="M 750 794 
L 1409 794 
L 1409 256 
L 897 -744 
L 494 -744 
L 750 256 
L 750 794 
z
" transform="scale(0.015625)"/>
        <path id="DejaVuSans-20" transform="scale(0.015625)"/>
        <path id="DejaVuSans-32" d="M 1228 531 
L 3431 531 
L 3431 0 
L 469 0 
L 469 531 
Q 828 903 1448 1529 
Q 2069 2156 2228 2338 
Q 2531 2678 2651 2914 
Q 2772 3150 2772 3378 
Q 2772 3750 2511 3984 
Q 2250 4219 1831 4219 
Q 1534 4219 1204 4116 
Q 875 4013 500 3803 
L 500 4441 
Q 881 4594 1212 4672 
Q 1544 4750 1819 4750 
Q 2544 4750 2975 4387 
Q 3406 4025 3406 3419 
Q 3406 3131 3298 2873 
Q 3191 2616 2906 2266 
Q 2828 2175 2409 1742 
Q 1991 1309 1228 531 
z
" transform="scale(0.015625)"/>
        <path id="DejaVuSans-30" d="M 2034 4250 
Q 1547 4250 1301 3770 
Q 1056 3291 1056 2328 
Q 1056 1369 1301 889 
Q 1547 409 2034 409 
Q 2525 409 2770 889 
Q 3016 1369 3016 2328 
Q 3016 3291 2770 3770 
Q 2525 4250 2034 4250 
z
M 2034 4750 
Q 2819 4750 3233 4129 
Q 3647 3509 3647 2328 
Q 3647 1150 3233 529 
Q 2819 -91 2034 -91 
Q 1250 -91 836 529 
Q 422 1150 422 2328 
Q 422 3509 836 4129 
Q 1250 4750 2034 4750 
z
" transform="scale(0.015625)"/>
        <path id="DejaVuSans-33" d="M 2597 2516 
Q 3050 2419 3304 2112 
Q 3559 1806 3559 1356 
Q 3559 666 3084 287 
Q 2609 -91 1734 -91 
Q 1441 -91 1130 -33 
Q 819 25 488 141 
L 488 750 
Q 750 597 1062 519 
Q 1375 441 1716 441 
Q 2309 441 2620 675 
Q 2931 909 2931 1356 
Q 2931 1769 2642 2001 
Q 2353 2234 1838 2234 
L 1294 2234 
L 1294 2753 
L 1863 2753 
Q 2328 2753 2575 2939 
Q 2822 3125 2822 3475 
Q 2822 3834 2567 4026 
Q 2313 4219 1838 4219 
Q 1578 4219 1281 4162 
Q 984 4106 628 3988 
L 628 4550 
Q 988 4650 1302 4700 
Q 1616 4750 1894 4750 
Q 2613 4750 3031 4423 
Q 3450 4097 3450 3541 
Q 3450 3153 3228 2886 
Q 3006 2619 2597 2516 
z
" transform="scale(0.015625)"/>
        <path id="DejaVuSans-2d" d="M 313 2009 
L 1997 2009 
L 1997 1497 
L 313 1497 
L 313 2009 
z
" transform="scale(0.015625)"/>
        <path id="DejaVuSans-31" d="M 794 531 
L 1825 531 
L 1825 4091 
L 703 3866 
L 703 4441 
L 1819 4666 
L 2450 4666 
L 2450 531 
L 3481 531 
L 3481 0 
L 794 0 
L 794 531 
z
" transform="scale(0.015625)"/>
        <path id="DejaVuSans-38" d="M 2034 2216 
Q 1584 2216 1326 1975 
Q 1069 1734 1069 1313 
Q 1069 891 1326 650 
Q 1584 409 2034 409 
Q 2484 409 2743 651 
Q 3003 894 3003 1313 
Q 3003 1734 2745 1975 
Q 2488 2216 2034 2216 
z
M 1403 2484 
Q 997 2584 770 2862 
Q 544 3141 544 3541 
Q 544 4100 942 4425 
Q 1341 4750 2034 4750 
Q 2731 4750 3128 4425 
Q 3525 4100 3525 3541 
Q 3525 3141 3298 2862 
Q 3072 2584 2669 2484 
Q 3125 2378 3379 2068 
Q 3634 1759 3634 1313 
Q 3634 634 3220 271 
Q 2806 -91 2034 -91 
Q 1263 -91 848 271 
Q 434 634 434 1313 
Q 434 1759 690 2068 
Q 947 2378 1403 2484 
z
M 1172 3481 
Q 1172 3119 1398 2916 
Q 1625 2713 2034 2713 
Q 2441 2713 2670 2916 
Q 2900 3119 2900 3481 
Q 2900 3844 2670 4047 
Q 2441 4250 2034 4250 
Q 1625 4250 1398 4047 
Q 1172 3844 1172 3481 
z
" transform="scale(0.015625)"/>
       </defs>
       <use xlink:href="#DejaVuSans-53"/>
       <use xlink:href="#DejaVuSans-61" x="63.476562"/>
       <use xlink:href="#DejaVuSans-74" x="124.755859"/>
       <use xlink:href="#DejaVuSans-2c" x="163.964844"/>
       <use xlink:href="#DejaVuSans-20" x="195.751953"/>
       <use xlink:href="#DejaVuSans-32" x="227.539062"/>
       <use xlink:href="#DejaVuSans-30" x="291.162109"/>
       <use xlink:href="#DejaVuSans-32" x="354.785156"/>
       <use xlink:href="#DejaVuSans-33" x="418.408203"/>
       <use xlink:href="#DejaVuSans-2d" x="482.03125"/>
       <use xlink:href="#DejaVuSans-31" x="518.115234"/>
       <use xlink:href="#DejaVuSans-31" x="581.738281"/>
       <use xlink:href="#DejaVuSans-2d" x="645.361328"/>
       <use xlink:href="#DejaVuSans-31" x="681.445312"/>
       <use xlink:href="#DejaVuSans-38" x="745.068359"/>
      </g>
     </g>
    </g>
    <g id="xtick_2">
     <g id="line2d_3">
      <path d="M 99.040887 274.869025 
L 99.040887 8.757025 
" clip-path="url(#p0094e3a6e9)" style="fill: none; stroke: #b0b0b0; stroke-width: 0.8; stroke-linecap: square"/>
     </g>
     <g id="line2d_4">
      <g>
       <use xlink:href="#m31982825df" x="99.040887" y="274.869025" style="stroke: #000000; stroke-width: 0.8"/>
      </g>
     </g>
     <g id="text_2">
      <!-- Sun, 2023-11-19 -->
      <g transform="translate(101.800262 365.364337)rotate(-90)scale(0.1 -0.1)">
       <defs>
        <path id="DejaVuSans-75" d="M 544 1381 
L 544 3500 
L 1119 3500 
L 1119 1403 
Q 1119 906 1312 657 
Q 1506 409 1894 409 
Q 2359 409 2629 706 
Q 2900 1003 2900 1516 
L 2900 3500 
L 3475 3500 
L 3475 0 
L 2900 0 
L 2900 538 
Q 2691 219 2414 64 
Q 2138 -91 1772 -91 
Q 1169 -91 856 284 
Q 544 659 544 1381 
z
M 1991 3584 
L 1991 3584 
z
" transform="scale(0.015625)"/>
        <path id="DejaVuSans-6e" d="M 3513 2113 
L 3513 0 
L 2938 0 
L 2938 2094 
Q 2938 2591 2744 2837 
Q 2550 3084 2163 3084 
Q 1697 3084 1428 2787 
Q 1159 2491 1159 1978 
L 1159 0 
L 581 0 
L 581 3500 
L 1159 3500 
L 1159 2956 
Q 1366 3272 1645 3428 
Q 1925 3584 2291 3584 
Q 2894 3584 3203 3211 
Q 3513 2838 3513 2113 
z
" transform="scale(0.015625)"/>
        <path id="DejaVuSans-39" d="M 703 97 
L 703 672 
Q 941 559 1184 500 
Q 1428 441 1663 441 
Q 2288 441 2617 861 
Q 2947 1281 2994 2138 
Q 2813 1869 2534 1725 
Q 2256 1581 1919 1581 
Q 1219 1581 811 2004 
Q 403 2428 403 3163 
Q 403 3881 828 4315 
Q 1253 4750 1959 4750 
Q 2769 4750 3195 4129 
Q 3622 3509 3622 2328 
Q 3622 1225 3098 567 
Q 2575 -91 1691 -91 
Q 1453 -91 1209 -44 
Q 966 3 703 97 
z
M 1959 2075 
Q 2384 2075 2632 2365 
Q 2881 2656 2881 3163 
Q 2881 3666 2632 3958 
Q 2384 4250 1959 4250 
Q 1534 4250 1286 3958 
Q 1038 3666 1038 3163 
Q 1038 2656 1286 2365 
Q 1534 2075 1959 2075 
z
" transform="scale(0.015625)"/>
       </defs>
       <use xlink:href="#DejaVuSans-53"/>
       <use xlink:href="#DejaVuSans-75" x="63.476562"/>
       <use xlink:href="#DejaVuSans-6e" x="126.855469"/>
       <use xlink:href="#DejaVuSans-2c" x="190.234375"/>
       <use xlink:href="#DejaVuSans-20" x="222.021484"/>
       <use xlink:href="#DejaVuSans-32" x="253.808594"/>
       <use xlink:href="#DejaVuSans-30" x="317.431641"/>
       <use xlink:href="#DejaVuSans-32" x="381.054688"/>
       <use xlink:href="#DejaVuSans-33" x="444.677734"/>
       <use xlink:href="#DejaVuSans-2d" x="508.300781"/>
       <use xlink:href="#DejaVuSans-31" x="544.384766"/>
       <use xlink:href="#DejaVuSans-31" x="608.007812"/>
       <use xlink:href="#DejaVuSans-2d" x="671.630859"/>
       <use xlink:href="#DejaVuSans-31" x="707.714844"/>
       <use xlink:href="#DejaVuSans-39" x="771.337891"/>
      </g>
     </g>
    </g>
    <g id="xtick_3">
     <g id="line2d_5">
      <path d="M 138.957429 274.869025 
L 138.957429 8.757025 
" clip-path="url(#p0094e3a6e9)" style="fill: none; stroke: #b0b0b0; stroke-width: 0.8; stroke-linecap: square"/>
     </g>
     <g id="line2d_6">
      <g>
       <use xlink:href="#m31982825df" x="138.957429" y="274.869025" style="stroke: #000000; stroke-width: 0.8"/>
      </g>
     </g>
     <g id="text_3">
      <!-- Mon, 2023-11-20 -->
      <g transform="translate(141.716804 367.425275)rotate(-90)scale(0.1 -0.1)">
       <defs>
        <path id="DejaVuSans-4d" d="M 628 4666 
L 1569 4666 
L 2759 1491 
L 3956 4666 
L 4897 4666 
L 4897 0 
L 4281 0 
L 4281 4097 
L 3078 897 
L 2444 897 
L 1241 4097 
L 1241 0 
L 628 0 
L 628 4666 
z
" transform="scale(0.015625)"/>
        <path id="DejaVuSans-6f" d="M 1959 3097 
Q 1497 3097 1228 2736 
Q 959 2375 959 1747 
Q 959 1119 1226 758 
Q 1494 397 1959 397 
Q 2419 397 2687 759 
Q 2956 1122 2956 1747 
Q 2956 2369 2687 2733 
Q 2419 3097 1959 3097 
z
M 1959 3584 
Q 2709 3584 3137 3096 
Q 3566 2609 3566 1747 
Q 3566 888 3137 398 
Q 2709 -91 1959 -91 
Q 1206 -91 779 398 
Q 353 888 353 1747 
Q 353 2609 779 3096 
Q 1206 3584 1959 3584 
z
" transform="scale(0.015625)"/>
       </defs>
       <use xlink:href="#DejaVuSans-4d"/>
       <use xlink:href="#DejaVuSans-6f" x="86.279297"/>
       <use xlink:href="#DejaVuSans-6e" x="147.460938"/>
       <use xlink:href="#DejaVuSans-2c" x="210.839844"/>
       <use xlink:href="#DejaVuSans-20" x="242.626953"/>
       <use xlink:href="#DejaVuSans-32" x="274.414062"/>
       <use xlink:href="#DejaVuSans-30" x="338.037109"/>
       <use xlink:href="#DejaVuSans-32" x="401.660156"/>
       <use xlink:href="#DejaVuSans-33" x="465.283203"/>
       <use xlink:href="#DejaVuSans-2d" x="528.90625"/>
       <use xlink:href="#DejaVuSans-31" x="564.990234"/>
       <use xlink:href="#DejaVuSans-31" x="628.613281"/>
       <use xlink:href="#DejaVuSans-2d" x="692.236328"/>
       <use xlink:href="#DejaVuSans-32" x="728.320312"/>
       <use xlink:href="#DejaVuSans-30" x="791.943359"/>
      </g>
     </g>
    </g>
    <g id="xtick_4">
     <g id="line2d_7">
      <path d="M 178.873972 274.869025 
L 178.873972 8.757025 
" clip-path="url(#p0094e3a6e9)" style="fill: none; stroke: #b0b0b0; stroke-width: 0.8; stroke-linecap: square"/>
     </g>
     <g id="line2d_8">
      <g>
       <use xlink:href="#m31982825df" x="178.873972" y="274.869025" style="stroke: #000000; stroke-width: 0.8"/>
      </g>
     </g>
     <g id="text_4">
      <!-- Tues, 2023-11-21 -->
      <g transform="translate(181.633347 368.636212)rotate(-90)scale(0.1 -0.1)">
       <defs>
        <path id="DejaVuSans-54" d="M -19 4666 
L 3928 4666 
L 3928 4134 
L 2272 4134 
L 2272 0 
L 1638 0 
L 1638 4134 
L -19 4134 
L -19 4666 
z
" transform="scale(0.015625)"/>
        <path id="DejaVuSans-65" d="M 3597 1894 
L 3597 1613 
L 953 1613 
Q 991 1019 1311 708 
Q 1631 397 2203 397 
Q 2534 397 2845 478 
Q 3156 559 3463 722 
L 3463 178 
Q 3153 47 2828 -22 
Q 2503 -91 2169 -91 
Q 1331 -91 842 396 
Q 353 884 353 1716 
Q 353 2575 817 3079 
Q 1281 3584 2069 3584 
Q 2775 3584 3186 3129 
Q 3597 2675 3597 1894 
z
M 3022 2063 
Q 3016 2534 2758 2815 
Q 2500 3097 2075 3097 
Q 1594 3097 1305 2825 
Q 1016 2553 972 2059 
L 3022 2063 
z
" transform="scale(0.015625)"/>
        <path id="DejaVuSans-73" d="M 2834 3397 
L 2834 2853 
Q 2591 2978 2328 3040 
Q 2066 3103 1784 3103 
Q 1356 3103 1142 2972 
Q 928 2841 928 2578 
Q 928 2378 1081 2264 
Q 1234 2150 1697 2047 
L 1894 2003 
Q 2506 1872 2764 1633 
Q 3022 1394 3022 966 
Q 3022 478 2636 193 
Q 2250 -91 1575 -91 
Q 1294 -91 989 -36 
Q 684 19 347 128 
L 347 722 
Q 666 556 975 473 
Q 1284 391 1588 391 
Q 1994 391 2212 530 
Q 2431 669 2431 922 
Q 2431 1156 2273 1281 
Q 2116 1406 1581 1522 
L 1381 1569 
Q 847 1681 609 1914 
Q 372 2147 372 2553 
Q 372 3047 722 3315 
Q 1072 3584 1716 3584 
Q 2034 3584 2315 3537 
Q 2597 3491 2834 3397 
z
" transform="scale(0.015625)"/>
       </defs>
       <use xlink:href="#DejaVuSans-54"/>
       <use xlink:href="#DejaVuSans-75" x="45.958984"/>
       <use xlink:href="#DejaVuSans-65" x="109.337891"/>
       <use xlink:href="#DejaVuSans-73" x="170.861328"/>
       <use xlink:href="#DejaVuSans-2c" x="222.960938"/>
       <use xlink:href="#DejaVuSans-20" x="254.748047"/>
       <use xlink:href="#DejaVuSans-32" x="286.535156"/>
       <use xlink:href="#DejaVuSans-30" x="350.158203"/>
       <use xlink:href="#DejaVuSans-32" x="413.78125"/>
       <use xlink:href="#DejaVuSans-33" x="477.404297"/>
       <use xlink:href="#DejaVuSans-2d" x="541.027344"/>
       <use xlink:href="#DejaVuSans-31" x="577.111328"/>
       <use xlink:href="#DejaVuSans-31" x="640.734375"/>
       <use xlink:href="#DejaVuSans-2d" x="704.357422"/>
       <use xlink:href="#DejaVuSans-32" x="740.441406"/>
       <use xlink:href="#DejaVuSans-31" x="804.064453"/>
      </g>
     </g>
    </g>
    <g id="xtick_5">
     <g id="line2d_9">
      <path d="M 218.790514 274.869025 
L 218.790514 8.757025 
" clip-path="url(#p0094e3a6e9)" style="fill: none; stroke: #b0b0b0; stroke-width: 0.8; stroke-linecap: square"/>
     </g>
     <g id="line2d_10">
      <g>
       <use xlink:href="#m31982825df" x="218.790514" y="274.869025" style="stroke: #000000; stroke-width: 0.8"/>
      </g>
     </g>
     <g id="text_5">
      <!-- Weds, 2023-11-22 -->
      <g transform="translate(221.549889 373.351837)rotate(-90)scale(0.1 -0.1)">
       <defs>
        <path id="DejaVuSans-57" d="M 213 4666 
L 850 4666 
L 1831 722 
L 2809 4666 
L 3519 4666 
L 4500 722 
L 5478 4666 
L 6119 4666 
L 4947 0 
L 4153 0 
L 3169 4050 
L 2175 0 
L 1381 0 
L 213 4666 
z
" transform="scale(0.015625)"/>
        <path id="DejaVuSans-64" d="M 2906 2969 
L 2906 4863 
L 3481 4863 
L 3481 0 
L 2906 0 
L 2906 525 
Q 2725 213 2448 61 
Q 2172 -91 1784 -91 
Q 1150 -91 751 415 
Q 353 922 353 1747 
Q 353 2572 751 3078 
Q 1150 3584 1784 3584 
Q 2172 3584 2448 3432 
Q 2725 3281 2906 2969 
z
M 947 1747 
Q 947 1113 1208 752 
Q 1469 391 1925 391 
Q 2381 391 2643 752 
Q 2906 1113 2906 1747 
Q 2906 2381 2643 2742 
Q 2381 3103 1925 3103 
Q 1469 3103 1208 2742 
Q 947 2381 947 1747 
z
" transform="scale(0.015625)"/>
       </defs>
       <use xlink:href="#DejaVuSans-57"/>
       <use xlink:href="#DejaVuSans-65" x="93.001953"/>
       <use xlink:href="#DejaVuSans-64" x="154.525391"/>
       <use xlink:href="#DejaVuSans-73" x="218.001953"/>
       <use xlink:href="#DejaVuSans-2c" x="270.101562"/>
       <use xlink:href="#DejaVuSans-20" x="301.888672"/>
       <use xlink:href="#DejaVuSans-32" x="333.675781"/>
       <use xlink:href="#DejaVuSans-30" x="397.298828"/>
       <use xlink:href="#DejaVuSans-32" x="460.921875"/>
       <use xlink:href="#DejaVuSans-33" x="524.544922"/>
       <use xlink:href="#DejaVuSans-2d" x="588.167969"/>
       <use xlink:href="#DejaVuSans-31" x="624.251953"/>
       <use xlink:href="#DejaVuSans-31" x="687.875"/>
       <use xlink:href="#DejaVuSans-2d" x="751.498047"/>
       <use xlink:href="#DejaVuSans-32" x="787.582031"/>
       <use xlink:href="#DejaVuSans-32" x="851.205078"/>
      </g>
     </g>
    </g>
    <g id="xtick_6">
     <g id="line2d_11">
      <path d="M 258.707057 274.869025 
L 258.707057 8.757025 
" clip-path="url(#p0094e3a6e9)" style="fill: none; stroke: #b0b0b0; stroke-width: 0.8; stroke-linecap: square"/>
     </g>
     <g id="line2d_12">
      <g>
       <use xlink:href="#m31982825df" x="258.707057" y="274.869025" style="stroke: #000000; stroke-width: 0.8"/>
      </g>
     </g>
     <g id="text_6">
      <!-- Thurs, 2023-11-23 -->
      <g transform="translate(261.466432 374.444025)rotate(-90)scale(0.1 -0.1)">
       <defs>
        <path id="DejaVuSans-68" d="M 3513 2113 
L 3513 0 
L 2938 0 
L 2938 2094 
Q 2938 2591 2744 2837 
Q 2550 3084 2163 3084 
Q 1697 3084 1428 2787 
Q 1159 2491 1159 1978 
L 1159 0 
L 581 0 
L 581 4863 
L 1159 4863 
L 1159 2956 
Q 1366 3272 1645 3428 
Q 1925 3584 2291 3584 
Q 2894 3584 3203 3211 
Q 3513 2838 3513 2113 
z
" transform="scale(0.015625)"/>
        <path id="DejaVuSans-72" d="M 2631 2963 
Q 2534 3019 2420 3045 
Q 2306 3072 2169 3072 
Q 1681 3072 1420 2755 
Q 1159 2438 1159 1844 
L 1159 0 
L 581 0 
L 581 3500 
L 1159 3500 
L 1159 2956 
Q 1341 3275 1631 3429 
Q 1922 3584 2338 3584 
Q 2397 3584 2469 3576 
Q 2541 3569 2628 3553 
L 2631 2963 
z
" transform="scale(0.015625)"/>
       </defs>
       <use xlink:href="#DejaVuSans-54"/>
       <use xlink:href="#DejaVuSans-68" x="61.083984"/>
       <use xlink:href="#DejaVuSans-75" x="124.462891"/>
       <use xlink:href="#DejaVuSans-72" x="187.841797"/>
       <use xlink:href="#DejaVuSans-73" x="228.955078"/>
       <use xlink:href="#DejaVuSans-2c" x="281.054688"/>
       <use xlink:href="#DejaVuSans-20" x="312.841797"/>
       <use xlink:href="#DejaVuSans-32" x="344.628906"/>
       <use xlink:href="#DejaVuSans-30" x="408.251953"/>
       <use xlink:href="#DejaVuSans-32" x="471.875"/>
       <use xlink:href="#DejaVuSans-33" x="535.498047"/>
       <use xlink:href="#DejaVuSans-2d" x="599.121094"/>
       <use xlink:href="#DejaVuSans-31" x="635.205078"/>
       <use xlink:href="#DejaVuSans-31" x="698.828125"/>
       <use xlink:href="#DejaVuSans-2d" x="762.451172"/>
       <use xlink:href="#DejaVuSans-32" x="798.535156"/>
       <use xlink:href="#DejaVuSans-33" x="862.158203"/>
      </g>
     </g>
    </g>
    <g id="xtick_7">
     <g id="line2d_13">
      <path d="M 298.623599 274.869025 
L 298.623599 8.757025 
" clip-path="url(#p0094e3a6e9)" style="fill: none; stroke: #b0b0b0; stroke-width: 0.8; stroke-linecap: square"/>
     </g>
     <g id="line2d_14">
      <g>
       <use xlink:href="#m31982825df" x="298.623599" y="274.869025" style="stroke: #000000; stroke-width: 0.8"/>
      </g>
     </g>
     <g id="text_7">
      <!-- Fri, 2023-11-24 -->
      <g transform="translate(301.382974 358.256525)rotate(-90)scale(0.1 -0.1)">
       <defs>
        <path id="DejaVuSans-46" d="M 628 4666 
L 3309 4666 
L 3309 4134 
L 1259 4134 
L 1259 2759 
L 3109 2759 
L 3109 2228 
L 1259 2228 
L 1259 0 
L 628 0 
L 628 4666 
z
" transform="scale(0.015625)"/>
        <path id="DejaVuSans-69" d="M 603 3500 
L 1178 3500 
L 1178 0 
L 603 0 
L 603 3500 
z
M 603 4863 
L 1178 4863 
L 1178 4134 
L 603 4134 
L 603 4863 
z
" transform="scale(0.015625)"/>
        <path id="DejaVuSans-34" d="M 2419 4116 
L 825 1625 
L 2419 1625 
L 2419 4116 
z
M 2253 4666 
L 3047 4666 
L 3047 1625 
L 3713 1625 
L 3713 1100 
L 3047 1100 
L 3047 0 
L 2419 0 
L 2419 1100 
L 313 1100 
L 313 1709 
L 2253 4666 
z
" transform="scale(0.015625)"/>
       </defs>
       <use xlink:href="#DejaVuSans-46"/>
       <use xlink:href="#DejaVuSans-72" x="50.269531"/>
       <use xlink:href="#DejaVuSans-69" x="91.382812"/>
       <use xlink:href="#DejaVuSans-2c" x="119.166016"/>
       <use xlink:href="#DejaVuSans-20" x="150.953125"/>
       <use xlink:href="#DejaVuSans-32" x="182.740234"/>
       <use xlink:href="#DejaVuSans-30" x="246.363281"/>
       <use xlink:href="#DejaVuSans-32" x="309.986328"/>
       <use xlink:href="#DejaVuSans-33" x="373.609375"/>
       <use xlink:href="#DejaVuSans-2d" x="437.232422"/>
       <use xlink:href="#DejaVuSans-31" x="473.316406"/>
       <use xlink:href="#DejaVuSans-31" x="536.939453"/>
       <use xlink:href="#DejaVuSans-2d" x="600.5625"/>
       <use xlink:href="#DejaVuSans-32" x="636.646484"/>
       <use xlink:href="#DejaVuSans-34" x="700.269531"/>
      </g>
     </g>
    </g>
    <g id="xtick_8">
     <g id="line2d_15">
      <path d="M 351.845656 274.869025 
L 351.845656 8.757025 
" clip-path="url(#p0094e3a6e9)" style="fill: none; stroke: #b0b0b0; stroke-width: 0.8; stroke-linecap: square"/>
     </g>
     <g id="line2d_16">
      <g>
       <use xlink:href="#m31982825df" x="351.845656" y="274.869025" style="stroke: #000000; stroke-width: 0.8"/>
      </g>
     </g>
     <g id="text_8">
      <!-- AVERAGE -->
      <g transform="translate(354.605031 328.512775)rotate(-90)scale(0.1 -0.1)">
       <defs>
        <path id="DejaVuSans-41" d="M 2188 4044 
L 1331 1722 
L 3047 1722 
L 2188 4044 
z
M 1831 4666 
L 2547 4666 
L 4325 0 
L 3669 0 
L 3244 1197 
L 1141 1197 
L 716 0 
L 50 0 
L 1831 4666 
z
" transform="scale(0.015625)"/>
        <path id="DejaVuSans-56" d="M 1831 0 
L 50 4666 
L 709 4666 
L 2188 738 
L 3669 4666 
L 4325 4666 
L 2547 0 
L 1831 0 
z
" transform="scale(0.015625)"/>
        <path id="DejaVuSans-45" d="M 628 4666 
L 3578 4666 
L 3578 4134 
L 1259 4134 
L 1259 2753 
L 3481 2753 
L 3481 2222 
L 1259 2222 
L 1259 531 
L 3634 531 
L 3634 0 
L 628 0 
L 628 4666 
z
" transform="scale(0.015625)"/>
        <path id="DejaVuSans-52" d="M 2841 2188 
Q 3044 2119 3236 1894 
Q 3428 1669 3622 1275 
L 4263 0 
L 3584 0 
L 2988 1197 
Q 2756 1666 2539 1819 
Q 2322 1972 1947 1972 
L 1259 1972 
L 1259 0 
L 628 0 
L 628 4666 
L 2053 4666 
Q 2853 4666 3247 4331 
Q 3641 3997 3641 3322 
Q 3641 2881 3436 2590 
Q 3231 2300 2841 2188 
z
M 1259 4147 
L 1259 2491 
L 2053 2491 
Q 2509 2491 2742 2702 
Q 2975 2913 2975 3322 
Q 2975 3731 2742 3939 
Q 2509 4147 2053 4147 
L 1259 4147 
z
" transform="scale(0.015625)"/>
        <path id="DejaVuSans-47" d="M 3809 666 
L 3809 1919 
L 2778 1919 
L 2778 2438 
L 4434 2438 
L 4434 434 
Q 4069 175 3628 42 
Q 3188 -91 2688 -91 
Q 1594 -91 976 548 
Q 359 1188 359 2328 
Q 359 3472 976 4111 
Q 1594 4750 2688 4750 
Q 3144 4750 3555 4637 
Q 3966 4525 4313 4306 
L 4313 3634 
Q 3963 3931 3569 4081 
Q 3175 4231 2741 4231 
Q 1884 4231 1454 3753 
Q 1025 3275 1025 2328 
Q 1025 1384 1454 906 
Q 1884 428 2741 428 
Q 3075 428 3337 486 
Q 3600 544 3809 666 
z
" transform="scale(0.015625)"/>
       </defs>
       <use xlink:href="#DejaVuSans-41"/>
       <use xlink:href="#DejaVuSans-56" x="62.033203"/>
       <use xlink:href="#DejaVuSans-45" x="130.441406"/>
       <use xlink:href="#DejaVuSans-52" x="193.625"/>
       <use xlink:href="#DejaVuSans-41" x="259.107422"/>
       <use xlink:href="#DejaVuSans-47" x="325.765625"/>
       <use xlink:href="#DejaVuSans-45" x="403.255859"/>
      </g>
     </g>
    </g>
   </g>
   <g id="matplotlib.axis_2">
    <g id="ytick_1">
     <g id="line2d_17">
      <path d="M 26.925 274.869025 
L 384.045 274.869025 
" clip-path="url(#p0094e3a6e9)" style="fill: none; stroke: #b0b0b0; stroke-width: 0.8; stroke-linecap: square"/>
     </g>
     <g id="line2d_18">
      <defs>
       <path id="m42913eb78a" d="M 0 0 
L -3.5 0 
" style="stroke: #000000; stroke-width: 0.8"/>
      </defs>
      <g>
       <use xlink:href="#m42913eb78a" x="26.925" y="274.869025" style="stroke: #000000; stroke-width: 0.8"/>
      </g>
     </g>
     <g id="text_9">
      <!-- 0 -->
      <g transform="translate(13.5625 278.668244)scale(0.1 -0.1)">
       <use xlink:href="#DejaVuSans-30"/>
      </g>
     </g>
    </g>
    <g id="ytick_2">
     <g id="line2d_19">
      <path d="M 26.925 223.157716 
L 384.045 223.157716 
" clip-path="url(#p0094e3a6e9)" style="fill: none; stroke: #b0b0b0; stroke-width: 0.8; stroke-linecap: square"/>
     </g>
     <g id="line2d_20">
      <g>
       <use xlink:href="#m42913eb78a" x="26.925" y="223.157716" style="stroke: #000000; stroke-width: 0.8"/>
      </g>
     </g>
     <g id="text_10">
      <!-- 5 -->
      <g transform="translate(13.5625 226.956934)scale(0.1 -0.1)">
       <defs>
        <path id="DejaVuSans-35" d="M 691 4666 
L 3169 4666 
L 3169 4134 
L 1269 4134 
L 1269 2991 
Q 1406 3038 1543 3061 
Q 1681 3084 1819 3084 
Q 2600 3084 3056 2656 
Q 3513 2228 3513 1497 
Q 3513 744 3044 326 
Q 2575 -91 1722 -91 
Q 1428 -91 1123 -41 
Q 819 9 494 109 
L 494 744 
Q 775 591 1075 516 
Q 1375 441 1709 441 
Q 2250 441 2565 725 
Q 2881 1009 2881 1497 
Q 2881 1984 2565 2268 
Q 2250 2553 1709 2553 
Q 1456 2553 1204 2497 
Q 953 2441 691 2322 
L 691 4666 
z
" transform="scale(0.015625)"/>
       </defs>
       <use xlink:href="#DejaVuSans-35"/>
      </g>
     </g>
    </g>
    <g id="ytick_3">
     <g id="line2d_21">
      <path d="M 26.925 171.446406 
L 384.045 171.446406 
" clip-path="url(#p0094e3a6e9)" style="fill: none; stroke: #b0b0b0; stroke-width: 0.8; stroke-linecap: square"/>
     </g>
     <g id="line2d_22">
      <g>
       <use xlink:href="#m42913eb78a" x="26.925" y="171.446406" style="stroke: #000000; stroke-width: 0.8"/>
      </g>
     </g>
     <g id="text_11">
      <!-- 10 -->
      <g transform="translate(7.2 175.245625)scale(0.1 -0.1)">
       <use xlink:href="#DejaVuSans-31"/>
       <use xlink:href="#DejaVuSans-30" x="63.623047"/>
      </g>
     </g>
    </g>
    <g id="ytick_4">
     <g id="line2d_23">
      <path d="M 26.925 119.735097 
L 384.045 119.735097 
" clip-path="url(#p0094e3a6e9)" style="fill: none; stroke: #b0b0b0; stroke-width: 0.8; stroke-linecap: square"/>
     </g>
     <g id="line2d_24">
      <g>
       <use xlink:href="#m42913eb78a" x="26.925" y="119.735097" style="stroke: #000000; stroke-width: 0.8"/>
      </g>
     </g>
     <g id="text_12">
      <!-- 15 -->
      <g transform="translate(7.2 123.534316)scale(0.1 -0.1)">
       <use xlink:href="#DejaVuSans-31"/>
       <use xlink:href="#DejaVuSans-35" x="63.623047"/>
      </g>
     </g>
    </g>
    <g id="ytick_5">
     <g id="line2d_25">
      <path d="M 26.925 68.023788 
L 384.045 68.023788 
" clip-path="url(#p0094e3a6e9)" style="fill: none; stroke: #b0b0b0; stroke-width: 0.8; stroke-linecap: square"/>
     </g>
     <g id="line2d_26">
      <g>
       <use xlink:href="#m42913eb78a" x="26.925" y="68.023788" style="stroke: #000000; stroke-width: 0.8"/>
      </g>
     </g>
     <g id="text_13">
      <!-- 20 -->
      <g transform="translate(7.2 71.823006)scale(0.1 -0.1)">
       <use xlink:href="#DejaVuSans-32"/>
       <use xlink:href="#DejaVuSans-30" x="63.623047"/>
      </g>
     </g>
    </g>
    <g id="ytick_6">
     <g id="line2d_27">
      <path d="M 26.925 16.312478 
L 384.045 16.312478 
" clip-path="url(#p0094e3a6e9)" style="fill: none; stroke: #b0b0b0; stroke-width: 0.8; stroke-linecap: square"/>
     </g>
     <g id="line2d_28">
      <g>
       <use xlink:href="#m42913eb78a" x="26.925" y="16.312478" style="stroke: #000000; stroke-width: 0.8"/>
      </g>
     </g>
     <g id="text_14">
      <!-- 25 -->
      <g transform="translate(7.2 20.111697)scale(0.1 -0.1)">
       <use xlink:href="#DejaVuSans-32"/>
       <use xlink:href="#DejaVuSans-35" x="63.623047"/>
      </g>
     </g>
    </g>
   </g>
   <g id="line2d_29">
    <path d="M 43.157727 26.65474 
L 367.812273 26.65474 
" clip-path="url(#p0094e3a6e9)" style="fill: none; stroke-dasharray: 3.7,1.6; stroke-dashoffset: 0; stroke: #000000; stroke-opacity: 0.5"/>
   </g>
   <g id="line2d_30">
    <path d="M 43.157727 192.13093 
L 367.812273 192.13093 
" clip-path="url(#p0094e3a6e9)" style="fill: none; stroke-dasharray: 9.25,4; stroke-dashoffset: 0; stroke: #0000ff; stroke-width: 2.5"/>
   </g>
   <g id="line2d_31">
    <path d="M 325.234627 274.869025 
L 325.234627 21.429025 
" clip-path="url(#p0094e3a6e9)" style="fill: none; stroke-dasharray: 2,3.3; stroke-dashoffset: 0; stroke: #808080; stroke-width: 2"/>
   </g>
   <g id="patch_43">
    <path d="M 26.925 274.869025 
L 26.925 8.757025 
" style="fill: none; stroke: #000000; stroke-width: 0.8; stroke-linejoin: miter; stroke-linecap: square"/>
   </g>
   <g id="patch_44">
    <path d="M 384.045 274.869025 
L 384.045 8.757025 
" style="fill: none; stroke: #000000; stroke-width: 0.8; stroke-linejoin: miter; stroke-linecap: square"/>
   </g>
   <g id="patch_45">
    <path d="M 26.925 274.869025 
L 384.045 274.869025 
" style="fill: none; stroke: #000000; stroke-width: 0.8; stroke-linejoin: miter; stroke-linecap: square"/>
   </g>
   <g id="patch_46">
    <path d="M 26.925 8.757025 
L 384.045 8.757025 
" style="fill: none; stroke: #000000; stroke-width: 0.8; stroke-linejoin: miter; stroke-linecap: square"/>
   </g>
   <g id="text_15">
    <!-- 5.5 -->
    <g transform="translate(50.267313 246.23676)scale(0.1 -0.1)">
     <defs>
      <path id="DejaVuSans-Bold-35" d="M 678 4666 
L 3669 4666 
L 3669 3781 
L 1638 3781 
L 1638 3059 
Q 1775 3097 1914 3117 
Q 2053 3138 2203 3138 
Q 3056 3138 3531 2711 
Q 4006 2284 4006 1522 
Q 4006 766 3489 337 
Q 2972 -91 2053 -91 
Q 1656 -91 1267 -14 
Q 878 63 494 219 
L 494 1166 
Q 875 947 1217 837 
Q 1559 728 1863 728 
Q 2300 728 2551 942 
Q 2803 1156 2803 1522 
Q 2803 1891 2551 2103 
Q 2300 2316 1863 2316 
Q 1603 2316 1309 2248 
Q 1016 2181 678 2041 
L 678 4666 
z
" transform="scale(0.015625)"/>
      <path id="DejaVuSans-Bold-2e" d="M 653 1209 
L 1778 1209 
L 1778 0 
L 653 0 
L 653 1209 
z
" transform="scale(0.015625)"/>
     </defs>
     <use xlink:href="#DejaVuSans-Bold-35"/>
     <use xlink:href="#DejaVuSans-Bold-2e" x="69.580078"/>
     <use xlink:href="#DejaVuSans-Bold-35" x="107.568359"/>
    </g>
   </g>
   <g id="text_16">
    <!-- 9.6 -->
    <g transform="translate(90.183855 225.269261)scale(0.1 -0.1)">
     <defs>
      <path id="DejaVuSans-Bold-39" d="M 641 103 
L 641 966 
Q 928 831 1190 764 
Q 1453 697 1709 697 
Q 2247 697 2547 995 
Q 2847 1294 2900 1881 
Q 2688 1725 2447 1647 
Q 2206 1569 1925 1569 
Q 1209 1569 770 1986 
Q 331 2403 331 3084 
Q 331 3838 820 4291 
Q 1309 4744 2131 4744 
Q 3044 4744 3544 4128 
Q 4044 3513 4044 2388 
Q 4044 1231 3459 570 
Q 2875 -91 1856 -91 
Q 1528 -91 1228 -42 
Q 928 6 641 103 
z
M 2125 2350 
Q 2441 2350 2600 2554 
Q 2759 2759 2759 3169 
Q 2759 3575 2600 3781 
Q 2441 3988 2125 3988 
Q 1809 3988 1650 3781 
Q 1491 3575 1491 3169 
Q 1491 2759 1650 2554 
Q 1809 2350 2125 2350 
z
" transform="scale(0.015625)"/>
      <path id="DejaVuSans-Bold-36" d="M 2316 2303 
Q 2000 2303 1842 2098 
Q 1684 1894 1684 1484 
Q 1684 1075 1842 870 
Q 2000 666 2316 666 
Q 2634 666 2792 870 
Q 2950 1075 2950 1484 
Q 2950 1894 2792 2098 
Q 2634 2303 2316 2303 
z
M 3803 4544 
L 3803 3681 
Q 3506 3822 3243 3889 
Q 2981 3956 2731 3956 
Q 2194 3956 1894 3657 
Q 1594 3359 1544 2772 
Q 1750 2925 1990 3001 
Q 2231 3078 2516 3078 
Q 3231 3078 3670 2659 
Q 4109 2241 4109 1563 
Q 4109 813 3618 361 
Q 3128 -91 2303 -91 
Q 1394 -91 895 523 
Q 397 1138 397 2266 
Q 397 3422 980 4083 
Q 1563 4744 2578 4744 
Q 2900 4744 3203 4694 
Q 3506 4644 3803 4544 
z
" transform="scale(0.015625)"/>
     </defs>
     <use xlink:href="#DejaVuSans-Bold-39"/>
     <use xlink:href="#DejaVuSans-Bold-2e" x="69.580078"/>
     <use xlink:href="#DejaVuSans-Bold-36" x="107.568359"/>
    </g>
   </g>
   <g id="text_17">
    <!-- 10.4 -->
    <g transform="translate(126.621492 221.128047)scale(0.1 -0.1)">
     <defs>
      <path id="DejaVuSans-Bold-31" d="M 750 831 
L 1813 831 
L 1813 3847 
L 722 3622 
L 722 4441 
L 1806 4666 
L 2950 4666 
L 2950 831 
L 4013 831 
L 4013 0 
L 750 0 
L 750 831 
z
" transform="scale(0.015625)"/>
      <path id="DejaVuSans-Bold-30" d="M 2944 2338 
Q 2944 3213 2780 3570 
Q 2616 3928 2228 3928 
Q 1841 3928 1675 3570 
Q 1509 3213 1509 2338 
Q 1509 1453 1675 1090 
Q 1841 728 2228 728 
Q 2613 728 2778 1090 
Q 2944 1453 2944 2338 
z
M 4147 2328 
Q 4147 1169 3647 539 
Q 3147 -91 2228 -91 
Q 1306 -91 806 539 
Q 306 1169 306 2328 
Q 306 3491 806 4120 
Q 1306 4750 2228 4750 
Q 3147 4750 3647 4120 
Q 4147 3491 4147 2328 
z
" transform="scale(0.015625)"/>
      <path id="DejaVuSans-Bold-34" d="M 2356 3675 
L 1038 1722 
L 2356 1722 
L 2356 3675 
z
M 2156 4666 
L 3494 4666 
L 3494 1722 
L 4159 1722 
L 4159 850 
L 3494 850 
L 3494 0 
L 2356 0 
L 2356 850 
L 288 850 
L 288 1881 
L 2156 4666 
z
" transform="scale(0.015625)"/>
     </defs>
     <use xlink:href="#DejaVuSans-Bold-31"/>
     <use xlink:href="#DejaVuSans-Bold-30" x="69.580078"/>
     <use xlink:href="#DejaVuSans-Bold-2e" x="139.160156"/>
     <use xlink:href="#DejaVuSans-Bold-34" x="177.148438"/>
    </g>
   </g>
   <g id="text_18">
    <!-- 10.0 -->
    <g transform="translate(166.538034 223.36887)scale(0.1 -0.1)">
     <use xlink:href="#DejaVuSans-Bold-31"/>
     <use xlink:href="#DejaVuSans-Bold-30" x="69.580078"/>
     <use xlink:href="#DejaVuSans-Bold-2e" x="139.160156"/>
     <use xlink:href="#DejaVuSans-Bold-30" x="177.148438"/>
    </g>
   </g>
   <g id="text_19">
    <!-- 10.1 -->
    <g transform="translate(206.454577 222.643475)scale(0.1 -0.1)">
     <use xlink:href="#DejaVuSans-Bold-31"/>
     <use xlink:href="#DejaVuSans-Bold-30" x="69.580078"/>
     <use xlink:href="#DejaVuSans-Bold-2e" x="139.160156"/>
     <use xlink:href="#DejaVuSans-Bold-31" x="177.148438"/>
    </g>
   </g>
   <g id="text_20">
    <!-- 9.2 -->
    <g transform="translate(249.850025 227.409534)scale(0.1 -0.1)">
     <defs>
      <path id="DejaVuSans-Bold-32" d="M 1844 884 
L 3897 884 
L 3897 0 
L 506 0 
L 506 884 
L 2209 2388 
Q 2438 2594 2547 2791 
Q 2656 2988 2656 3200 
Q 2656 3528 2436 3728 
Q 2216 3928 1850 3928 
Q 1569 3928 1234 3808 
Q 900 3688 519 3450 
L 519 4475 
Q 925 4609 1322 4679 
Q 1719 4750 2100 4750 
Q 2938 4750 3402 4381 
Q 3866 4013 3866 3353 
Q 3866 2972 3669 2642 
Q 3472 2313 2841 1759 
L 1844 884 
z
" transform="scale(0.015625)"/>
     </defs>
     <use xlink:href="#DejaVuSans-Bold-39"/>
     <use xlink:href="#DejaVuSans-Bold-2e" x="69.580078"/>
     <use xlink:href="#DejaVuSans-Bold-32" x="107.568359"/>
    </g>
   </g>
   <g id="text_21">
    <!-- 10.0 -->
    <g transform="translate(286.287662 223.207991)scale(0.1 -0.1)">
     <use xlink:href="#DejaVuSans-Bold-31"/>
     <use xlink:href="#DejaVuSans-Bold-30" x="69.580078"/>
     <use xlink:href="#DejaVuSans-Bold-2e" x="139.160156"/>
     <use xlink:href="#DejaVuSans-Bold-30" x="177.148438"/>
    </g>
   </g>
   <g id="text_22">
    <!-- 9.2 -->
    <g transform="translate(342.988624 227.037705)scale(0.1 -0.1)">
     <use xlink:href="#DejaVuSans-Bold-39"/>
     <use xlink:href="#DejaVuSans-Bold-2e" x="69.580078"/>
     <use xlink:href="#DejaVuSans-Bold-32" x="107.568359"/>
    </g>
   </g>
   <g id="text_23">
    <!-- 0.0 -->
    <g transform="translate(50.267313 217.604496)scale(0.1 -0.1)">
     <use xlink:href="#DejaVuSans-Bold-30"/>
     <use xlink:href="#DejaVuSans-Bold-2e" x="69.580078"/>
     <use xlink:href="#DejaVuSans-Bold-30" x="107.568359"/>
    </g>
   </g>
   <g id="text_24">
    <!-- 0.8 -->
    <g transform="translate(90.183855 171.495245)scale(0.1 -0.1)">
     <defs>
      <path id="DejaVuSans-Bold-38" d="M 2228 2088 
Q 1891 2088 1709 1903 
Q 1528 1719 1528 1375 
Q 1528 1031 1709 848 
Q 1891 666 2228 666 
Q 2563 666 2741 848 
Q 2919 1031 2919 1375 
Q 2919 1722 2741 1905 
Q 2563 2088 2228 2088 
z
M 1350 2484 
Q 925 2613 709 2878 
Q 494 3144 494 3541 
Q 494 4131 934 4440 
Q 1375 4750 2228 4750 
Q 3075 4750 3515 4442 
Q 3956 4134 3956 3541 
Q 3956 3144 3739 2878 
Q 3522 2613 3097 2484 
Q 3572 2353 3814 2058 
Q 4056 1763 4056 1313 
Q 4056 619 3595 264 
Q 3134 -91 2228 -91 
Q 1319 -91 855 264 
Q 391 619 391 1313 
Q 391 1763 633 2058 
Q 875 2353 1350 2484 
z
M 1631 3419 
Q 1631 3141 1786 2991 
Q 1941 2841 2228 2841 
Q 2509 2841 2662 2991 
Q 2816 3141 2816 3419 
Q 2816 3697 2662 3845 
Q 2509 3994 2228 3994 
Q 1941 3994 1786 3844 
Q 1631 3694 1631 3419 
z
" transform="scale(0.015625)"/>
     </defs>
     <use xlink:href="#DejaVuSans-Bold-30"/>
     <use xlink:href="#DejaVuSans-Bold-2e" x="69.580078"/>
     <use xlink:href="#DejaVuSans-Bold-38" x="107.568359"/>
    </g>
   </g>
   <g id="text_25">
    <!-- 2.3 -->
    <g transform="translate(130.100398 155.461866)scale(0.1 -0.1)">
     <defs>
      <path id="DejaVuSans-Bold-33" d="M 2981 2516 
Q 3453 2394 3698 2092 
Q 3944 1791 3944 1325 
Q 3944 631 3412 270 
Q 2881 -91 1863 -91 
Q 1503 -91 1142 -33 
Q 781 25 428 141 
L 428 1069 
Q 766 900 1098 814 
Q 1431 728 1753 728 
Q 2231 728 2486 893 
Q 2741 1059 2741 1369 
Q 2741 1688 2480 1852 
Q 2219 2016 1709 2016 
L 1228 2016 
L 1228 2791 
L 1734 2791 
Q 2188 2791 2409 2933 
Q 2631 3075 2631 3366 
Q 2631 3634 2415 3781 
Q 2200 3928 1806 3928 
Q 1516 3928 1219 3862 
Q 922 3797 628 3669 
L 628 4550 
Q 984 4650 1334 4700 
Q 1684 4750 2022 4750 
Q 2931 4750 3382 4451 
Q 3834 4153 3834 3553 
Q 3834 3144 3618 2883 
Q 3403 2622 2981 2516 
z
" transform="scale(0.015625)"/>
     </defs>
     <use xlink:href="#DejaVuSans-Bold-32"/>
     <use xlink:href="#DejaVuSans-Bold-2e" x="69.580078"/>
     <use xlink:href="#DejaVuSans-Bold-33" x="107.568359"/>
    </g>
   </g>
   <g id="text_26">
    <!-- 3.2 -->
    <g transform="translate(170.01694 155.398663)scale(0.1 -0.1)">
     <use xlink:href="#DejaVuSans-Bold-33"/>
     <use xlink:href="#DejaVuSans-Bold-2e" x="69.580078"/>
     <use xlink:href="#DejaVuSans-Bold-32" x="107.568359"/>
    </g>
   </g>
   <g id="text_27">
    <!-- 1.1 -->
    <g transform="translate(209.933483 164.958073)scale(0.1 -0.1)">
     <use xlink:href="#DejaVuSans-Bold-31"/>
     <use xlink:href="#DejaVuSans-Bold-2e" x="69.580078"/>
     <use xlink:href="#DejaVuSans-Bold-31" x="107.568359"/>
    </g>
   </g>
   <g id="text_28">
    <!-- 0.0 -->
    <g transform="translate(249.850025 179.950044)scale(0.1 -0.1)">
     <use xlink:href="#DejaVuSans-Bold-30"/>
     <use xlink:href="#DejaVuSans-Bold-2e" x="69.580078"/>
     <use xlink:href="#DejaVuSans-Bold-30" x="107.568359"/>
    </g>
   </g>
   <g id="text_29">
    <!-- 0.1 -->
    <g transform="translate(289.766568 171.111719)scale(0.1 -0.1)">
     <use xlink:href="#DejaVuSans-Bold-30"/>
     <use xlink:href="#DejaVuSans-Bold-2e" x="69.580078"/>
     <use xlink:href="#DejaVuSans-Bold-31" x="107.568359"/>
    </g>
   </g>
   <g id="text_30">
    <!-- 1.1 -->
    <g transform="translate(342.988624 173.711444)scale(0.1 -0.1)">
     <use xlink:href="#DejaVuSans-Bold-31"/>
     <use xlink:href="#DejaVuSans-Bold-2e" x="69.580078"/>
     <use xlink:href="#DejaVuSans-Bold-31" x="107.568359"/>
    </g>
   </g>
   <g id="text_31">
    <!-- 0.6 -->
    <g transform="translate(50.267313 214.508999)scale(0.1 -0.1)">
     <use xlink:href="#DejaVuSans-Bold-30"/>
     <use xlink:href="#DejaVuSans-Bold-2e" x="69.580078"/>
     <use xlink:href="#DejaVuSans-Bold-36" x="107.568359"/>
    </g>
   </g>
   <g id="text_32">
    <!-- 1.1 -->
    <g transform="translate(90.183855 161.556618)scale(0.1 -0.1)">
     <use xlink:href="#DejaVuSans-Bold-31"/>
     <use xlink:href="#DejaVuSans-Bold-2e" x="69.580078"/>
     <use xlink:href="#DejaVuSans-Bold-31" x="107.568359"/>
    </g>
   </g>
   <g id="text_33">
    <!-- 2.3 -->
    <g transform="translate(130.100398 131.614334)scale(0.1 -0.1)">
     <use xlink:href="#DejaVuSans-Bold-32"/>
     <use xlink:href="#DejaVuSans-Bold-2e" x="69.580078"/>
     <use xlink:href="#DejaVuSans-Bold-33" x="107.568359"/>
    </g>
   </g>
   <g id="text_34">
    <!-- 1.4 -->
    <g transform="translate(170.01694 131.733557)scale(0.1 -0.1)">
     <use xlink:href="#DejaVuSans-Bold-31"/>
     <use xlink:href="#DejaVuSans-Bold-2e" x="69.580078"/>
     <use xlink:href="#DejaVuSans-Bold-34" x="107.568359"/>
    </g>
   </g>
   <g id="text_35">
    <!-- 2.2 -->
    <g transform="translate(209.933483 147.863176)scale(0.1 -0.1)">
     <use xlink:href="#DejaVuSans-Bold-32"/>
     <use xlink:href="#DejaVuSans-Bold-2e" x="69.580078"/>
     <use xlink:href="#DejaVuSans-Bold-32" x="107.568359"/>
    </g>
   </g>
   <g id="text_36">
    <!-- 1.3 -->
    <g transform="translate(249.850025 173.027911)scale(0.1 -0.1)">
     <use xlink:href="#DejaVuSans-Bold-31"/>
     <use xlink:href="#DejaVuSans-Bold-2e" x="69.580078"/>
     <use xlink:href="#DejaVuSans-Bold-33" x="107.568359"/>
    </g>
   </g>
   <g id="text_37">
    <!-- 2.3 -->
    <g transform="translate(289.766568 158.976799)scale(0.1 -0.1)">
     <use xlink:href="#DejaVuSans-Bold-32"/>
     <use xlink:href="#DejaVuSans-Bold-2e" x="69.580078"/>
     <use xlink:href="#DejaVuSans-Bold-33" x="107.568359"/>
    </g>
   </g>
   <g id="text_38">
    <!-- 1.6 -->
    <g transform="translate(342.988624 159.897342)scale(0.1 -0.1)">
     <use xlink:href="#DejaVuSans-Bold-31"/>
     <use xlink:href="#DejaVuSans-Bold-2e" x="69.580078"/>
     <use xlink:href="#DejaVuSans-Bold-36" x="107.568359"/>
    </g>
   </g>
   <g id="text_39">
    <!-- 3.7 -->
    <g transform="translate(50.267313 192.383741)scale(0.1 -0.1)">
     <defs>
      <path id="DejaVuSans-Bold-37" d="M 428 4666 
L 3944 4666 
L 3944 3988 
L 2125 0 
L 953 0 
L 2675 3781 
L 428 3781 
L 428 4666 
z
" transform="scale(0.015625)"/>
     </defs>
     <use xlink:href="#DejaVuSans-Bold-33"/>
     <use xlink:href="#DejaVuSans-Bold-2e" x="69.580078"/>
     <use xlink:href="#DejaVuSans-Bold-37" x="107.568359"/>
    </g>
   </g>
   <g id="text_40">
    <!-- 10.6 -->
    <g transform="translate(86.704949 101.202338)scale(0.1 -0.1)">
     <use xlink:href="#DejaVuSans-Bold-31"/>
     <use xlink:href="#DejaVuSans-Bold-30" x="69.580078"/>
     <use xlink:href="#DejaVuSans-Bold-2e" x="139.160156"/>
     <use xlink:href="#DejaVuSans-Bold-36" x="177.148438"/>
    </g>
   </g>
   <g id="text_41">
    <!-- 4.9 -->
    <g transform="translate(130.100398 94.245731)scale(0.1 -0.1)">
     <use xlink:href="#DejaVuSans-Bold-34"/>
     <use xlink:href="#DejaVuSans-Bold-2e" x="69.580078"/>
     <use xlink:href="#DejaVuSans-Bold-39" x="107.568359"/>
    </g>
   </g>
   <g id="text_42">
    <!-- 7.2 -->
    <g transform="translate(170.01694 87.098079)scale(0.1 -0.1)">
     <use xlink:href="#DejaVuSans-Bold-37"/>
     <use xlink:href="#DejaVuSans-Bold-2e" x="69.580078"/>
     <use xlink:href="#DejaVuSans-Bold-32" x="107.568359"/>
    </g>
   </g>
   <g id="text_43">
    <!-- 8.8 -->
    <g transform="translate(209.933483 90.786819)scale(0.1 -0.1)">
     <use xlink:href="#DejaVuSans-Bold-38"/>
     <use xlink:href="#DejaVuSans-Bold-2e" x="69.580078"/>
     <use xlink:href="#DejaVuSans-Bold-38" x="107.568359"/>
    </g>
   </g>
   <g id="text_44">
    <!-- 12.4 -->
    <g transform="translate(246.371119 102.179107)scale(0.1 -0.1)">
     <use xlink:href="#DejaVuSans-Bold-31"/>
     <use xlink:href="#DejaVuSans-Bold-32" x="69.580078"/>
     <use xlink:href="#DejaVuSans-Bold-2e" x="139.160156"/>
     <use xlink:href="#DejaVuSans-Bold-34" x="177.148438"/>
    </g>
   </g>
   <g id="text_45">
    <!-- 6.3 -->
    <g transform="translate(289.766568 114.805285)scale(0.1 -0.1)">
     <use xlink:href="#DejaVuSans-Bold-36"/>
     <use xlink:href="#DejaVuSans-Bold-2e" x="69.580078"/>
     <use xlink:href="#DejaVuSans-Bold-33" x="107.568359"/>
    </g>
   </g>
   <g id="text_46">
    <!-- 7.7 -->
    <g transform="translate(342.988624 111.814443)scale(0.1 -0.1)">
     <use xlink:href="#DejaVuSans-Bold-37"/>
     <use xlink:href="#DejaVuSans-Bold-2e" x="69.580078"/>
     <use xlink:href="#DejaVuSans-Bold-37" x="107.568359"/>
    </g>
   </g>
   <g id="text_47">
    <!-- 13.0 -->
    <g transform="translate(46.788407 106.320321)scale(0.1 -0.1)">
     <use xlink:href="#DejaVuSans-Bold-31"/>
     <use xlink:href="#DejaVuSans-Bold-33" x="69.580078"/>
     <use xlink:href="#DejaVuSans-Bold-2e" x="139.160156"/>
     <use xlink:href="#DejaVuSans-Bold-30" x="177.148438"/>
    </g>
   </g>
   <g id="text_48">
    <!-- 2.0 -->
    <g transform="translate(90.183855 36.387958)scale(0.1 -0.1)">
     <use xlink:href="#DejaVuSans-Bold-32"/>
     <use xlink:href="#DejaVuSans-Bold-2e" x="69.580078"/>
     <use xlink:href="#DejaVuSans-Bold-30" x="107.568359"/>
    </g>
   </g>
   <g id="text_49">
    <!-- 3.1 -->
    <g transform="translate(130.100398 52.654037)scale(0.1 -0.1)">
     <use xlink:href="#DejaVuSans-Bold-33"/>
     <use xlink:href="#DejaVuSans-Bold-2e" x="69.580078"/>
     <use xlink:href="#DejaVuSans-Bold-31" x="107.568359"/>
    </g>
   </g>
   <g id="text_50">
    <!-- 2.7 -->
    <g transform="translate(170.01694 35.54334)scale(0.1 -0.1)">
     <use xlink:href="#DejaVuSans-Bold-32"/>
     <use xlink:href="#DejaVuSans-Bold-2e" x="69.580078"/>
     <use xlink:href="#DejaVuSans-Bold-37" x="107.568359"/>
    </g>
   </g>
   <g id="text_51">
    <!-- 2.1 -->
    <g transform="translate(209.933483 34.397072)scale(0.1 -0.1)">
     <use xlink:href="#DejaVuSans-Bold-32"/>
     <use xlink:href="#DejaVuSans-Bold-2e" x="69.580078"/>
     <use xlink:href="#DejaVuSans-Bold-31" x="107.568359"/>
    </g>
   </g>
   <g id="text_52">
    <!-- 1.2 -->
    <g transform="translate(249.850025 32.223761)scale(0.1 -0.1)">
     <use xlink:href="#DejaVuSans-Bold-31"/>
     <use xlink:href="#DejaVuSans-Bold-2e" x="69.580078"/>
     <use xlink:href="#DejaVuSans-Bold-32" x="107.568359"/>
    </g>
   </g>
   <g id="text_53">
    <!-- 4.0 -->
    <g transform="translate(289.766568 61.440651)scale(0.1 -0.1)">
     <use xlink:href="#DejaVuSans-Bold-34"/>
     <use xlink:href="#DejaVuSans-Bold-2e" x="69.580078"/>
     <use xlink:href="#DejaVuSans-Bold-30" x="107.568359"/>
    </g>
   </g>
   <g id="text_54">
    <!-- 4.0 -->
    <g transform="translate(342.988624 51.28102)scale(0.1 -0.1)">
     <use xlink:href="#DejaVuSans-Bold-34"/>
     <use xlink:href="#DejaVuSans-Bold-2e" x="69.580078"/>
     <use xlink:href="#DejaVuSans-Bold-30" x="107.568359"/>
    </g>
   </g>
   <g id="legend_1">
    <g id="patch_47">
     <path d="M 401.982313 83.590625 
L 502.037 83.590625 
Q 504.037 83.590625 504.037 81.590625 
L 504.037 9.2 
Q 504.037 7.2 502.037 7.2 
L 401.982313 7.2 
Q 399.982313 7.2 399.982313 9.2 
L 399.982313 81.590625 
Q 399.982313 83.590625 401.982313 83.590625 
z
" style="fill: #ffffff; opacity: 0.8; stroke: #cccccc; stroke-linejoin: miter"/>
    </g>
    <g id="patch_48">
     <path d="M 403.982313 18.798437 
L 423.982313 18.798437 
L 423.982313 11.798437 
L 403.982313 11.798437 
z
" style="fill: #1f77b4"/>
    </g>
    <g id="text_55">
     <!-- Sleep -->
     <g transform="translate(431.982313 18.798437)scale(0.1 -0.1)">
      <defs>
       <path id="DejaVuSans-6c" d="M 603 4863 
L 1178 4863 
L 1178 0 
L 603 0 
L 603 4863 
z
" transform="scale(0.015625)"/>
       <path id="DejaVuSans-70" d="M 1159 525 
L 1159 -1331 
L 581 -1331 
L 581 3500 
L 1159 3500 
L 1159 2969 
Q 1341 3281 1617 3432 
Q 1894 3584 2278 3584 
Q 2916 3584 3314 3078 
Q 3713 2572 3713 1747 
Q 3713 922 3314 415 
Q 2916 -91 2278 -91 
Q 1894 -91 1617 61 
Q 1341 213 1159 525 
z
M 3116 1747 
Q 3116 2381 2855 2742 
Q 2594 3103 2138 3103 
Q 1681 3103 1420 2742 
Q 1159 2381 1159 1747 
Q 1159 1113 1420 752 
Q 1681 391 2138 391 
Q 2594 391 2855 752 
Q 3116 1113 3116 1747 
z
" transform="scale(0.015625)"/>
      </defs>
      <use xlink:href="#DejaVuSans-53"/>
      <use xlink:href="#DejaVuSans-6c" x="63.476562"/>
      <use xlink:href="#DejaVuSans-65" x="91.259766"/>
      <use xlink:href="#DejaVuSans-65" x="152.783203"/>
      <use xlink:href="#DejaVuSans-70" x="214.306641"/>
     </g>
    </g>
    <g id="patch_49">
     <path d="M 403.982313 33.476562 
L 423.982313 33.476562 
L 423.982313 26.476562 
L 403.982313 26.476562 
z
" style="fill: #ff7f0e"/>
    </g>
    <g id="text_56">
     <!-- Mental work -->
     <g transform="translate(431.982313 33.476562)scale(0.1 -0.1)">
      <defs>
       <path id="DejaVuSans-77" d="M 269 3500 
L 844 3500 
L 1563 769 
L 2278 3500 
L 2956 3500 
L 3675 769 
L 4391 3500 
L 4966 3500 
L 4050 0 
L 3372 0 
L 2619 2869 
L 1863 0 
L 1184 0 
L 269 3500 
z
" transform="scale(0.015625)"/>
       <path id="DejaVuSans-6b" d="M 581 4863 
L 1159 4863 
L 1159 1991 
L 2875 3500 
L 3609 3500 
L 1753 1863 
L 3688 0 
L 2938 0 
L 1159 1709 
L 1159 0 
L 581 0 
L 581 4863 
z
" transform="scale(0.015625)"/>
      </defs>
      <use xlink:href="#DejaVuSans-4d"/>
      <use xlink:href="#DejaVuSans-65" x="86.279297"/>
      <use xlink:href="#DejaVuSans-6e" x="147.802734"/>
      <use xlink:href="#DejaVuSans-74" x="211.181641"/>
      <use xlink:href="#DejaVuSans-61" x="250.390625"/>
      <use xlink:href="#DejaVuSans-6c" x="311.669922"/>
      <use xlink:href="#DejaVuSans-20" x="339.453125"/>
      <use xlink:href="#DejaVuSans-77" x="371.240234"/>
      <use xlink:href="#DejaVuSans-6f" x="453.027344"/>
      <use xlink:href="#DejaVuSans-72" x="514.208984"/>
      <use xlink:href="#DejaVuSans-6b" x="555.322266"/>
     </g>
    </g>
    <g id="patch_50">
     <path d="M 403.982313 48.154687 
L 423.982313 48.154687 
L 423.982313 41.154687 
L 403.982313 41.154687 
z
" style="fill: #2ca02c"/>
    </g>
    <g id="text_57">
     <!-- Physical work -->
     <g transform="translate(431.982313 48.154687)scale(0.1 -0.1)">
      <defs>
       <path id="DejaVuSans-50" d="M 1259 4147 
L 1259 2394 
L 2053 2394 
Q 2494 2394 2734 2622 
Q 2975 2850 2975 3272 
Q 2975 3691 2734 3919 
Q 2494 4147 2053 4147 
L 1259 4147 
z
M 628 4666 
L 2053 4666 
Q 2838 4666 3239 4311 
Q 3641 3956 3641 3272 
Q 3641 2581 3239 2228 
Q 2838 1875 2053 1875 
L 1259 1875 
L 1259 0 
L 628 0 
L 628 4666 
z
" transform="scale(0.015625)"/>
       <path id="DejaVuSans-79" d="M 2059 -325 
Q 1816 -950 1584 -1140 
Q 1353 -1331 966 -1331 
L 506 -1331 
L 506 -850 
L 844 -850 
Q 1081 -850 1212 -737 
Q 1344 -625 1503 -206 
L 1606 56 
L 191 3500 
L 800 3500 
L 1894 763 
L 2988 3500 
L 3597 3500 
L 2059 -325 
z
" transform="scale(0.015625)"/>
       <path id="DejaVuSans-63" d="M 3122 3366 
L 3122 2828 
Q 2878 2963 2633 3030 
Q 2388 3097 2138 3097 
Q 1578 3097 1268 2742 
Q 959 2388 959 1747 
Q 959 1106 1268 751 
Q 1578 397 2138 397 
Q 2388 397 2633 464 
Q 2878 531 3122 666 
L 3122 134 
Q 2881 22 2623 -34 
Q 2366 -91 2075 -91 
Q 1284 -91 818 406 
Q 353 903 353 1747 
Q 353 2603 823 3093 
Q 1294 3584 2113 3584 
Q 2378 3584 2631 3529 
Q 2884 3475 3122 3366 
z
" transform="scale(0.015625)"/>
      </defs>
      <use xlink:href="#DejaVuSans-50"/>
      <use xlink:href="#DejaVuSans-68" x="60.302734"/>
      <use xlink:href="#DejaVuSans-79" x="123.681641"/>
      <use xlink:href="#DejaVuSans-73" x="182.861328"/>
      <use xlink:href="#DejaVuSans-69" x="234.960938"/>
      <use xlink:href="#DejaVuSans-63" x="262.744141"/>
      <use xlink:href="#DejaVuSans-61" x="317.724609"/>
      <use xlink:href="#DejaVuSans-6c" x="379.003906"/>
      <use xlink:href="#DejaVuSans-20" x="406.787109"/>
      <use xlink:href="#DejaVuSans-77" x="438.574219"/>
      <use xlink:href="#DejaVuSans-6f" x="520.361328"/>
      <use xlink:href="#DejaVuSans-72" x="581.542969"/>
      <use xlink:href="#DejaVuSans-6b" x="622.65625"/>
     </g>
    </g>
    <g id="patch_51">
     <path d="M 403.982313 62.832812 
L 423.982313 62.832812 
L 423.982313 55.832812 
L 403.982313 55.832812 
z
" style="fill: #d62728"/>
    </g>
    <g id="text_58">
     <!-- Relaxing -->
     <g transform="translate(431.982313 62.832812)scale(0.1 -0.1)">
      <defs>
       <path id="DejaVuSans-78" d="M 3513 3500 
L 2247 1797 
L 3578 0 
L 2900 0 
L 1881 1375 
L 863 0 
L 184 0 
L 1544 1831 
L 300 3500 
L 978 3500 
L 1906 2253 
L 2834 3500 
L 3513 3500 
z
" transform="scale(0.015625)"/>
       <path id="DejaVuSans-67" d="M 2906 1791 
Q 2906 2416 2648 2759 
Q 2391 3103 1925 3103 
Q 1463 3103 1205 2759 
Q 947 2416 947 1791 
Q 947 1169 1205 825 
Q 1463 481 1925 481 
Q 2391 481 2648 825 
Q 2906 1169 2906 1791 
z
M 3481 434 
Q 3481 -459 3084 -895 
Q 2688 -1331 1869 -1331 
Q 1566 -1331 1297 -1286 
Q 1028 -1241 775 -1147 
L 775 -588 
Q 1028 -725 1275 -790 
Q 1522 -856 1778 -856 
Q 2344 -856 2625 -561 
Q 2906 -266 2906 331 
L 2906 616 
Q 2728 306 2450 153 
Q 2172 0 1784 0 
Q 1141 0 747 490 
Q 353 981 353 1791 
Q 353 2603 747 3093 
Q 1141 3584 1784 3584 
Q 2172 3584 2450 3431 
Q 2728 3278 2906 2969 
L 2906 3500 
L 3481 3500 
L 3481 434 
z
" transform="scale(0.015625)"/>
      </defs>
      <use xlink:href="#DejaVuSans-52"/>
      <use xlink:href="#DejaVuSans-65" x="64.982422"/>
      <use xlink:href="#DejaVuSans-6c" x="126.505859"/>
      <use xlink:href="#DejaVuSans-61" x="154.289062"/>
      <use xlink:href="#DejaVuSans-78" x="215.568359"/>
      <use xlink:href="#DejaVuSans-69" x="274.748047"/>
      <use xlink:href="#DejaVuSans-6e" x="302.53125"/>
      <use xlink:href="#DejaVuSans-67" x="365.910156"/>
     </g>
    </g>
    <g id="patch_52">
     <path d="M 403.982313 77.510937 
L 423.982313 77.510937 
L 423.982313 70.510937 
L 403.982313 70.510937 
z
" style="fill: #9467bd"/>
    </g>
    <g id="text_59">
     <!-- Other -->
     <g transform="translate(431.982313 77.510937)scale(0.1 -0.1)">
      <defs>
       <path id="DejaVuSans-4f" d="M 2522 4238 
Q 1834 4238 1429 3725 
Q 1025 3213 1025 2328 
Q 1025 1447 1429 934 
Q 1834 422 2522 422 
Q 3209 422 3611 934 
Q 4013 1447 4013 2328 
Q 4013 3213 3611 3725 
Q 3209 4238 2522 4238 
z
M 2522 4750 
Q 3503 4750 4090 4092 
Q 4678 3434 4678 2328 
Q 4678 1225 4090 567 
Q 3503 -91 2522 -91 
Q 1538 -91 948 565 
Q 359 1222 359 2328 
Q 359 3434 948 4092 
Q 1538 4750 2522 4750 
z
" transform="scale(0.015625)"/>
      </defs>
      <use xlink:href="#DejaVuSans-4f"/>
      <use xlink:href="#DejaVuSans-74" x="78.710938"/>
      <use xlink:href="#DejaVuSans-68" x="117.919922"/>
      <use xlink:href="#DejaVuSans-65" x="181.298828"/>
      <use xlink:href="#DejaVuSans-72" x="242.822266"/>
     </g>
    </g>
   </g>
  </g>
 </g>
 <defs>
  <clipPath id="p0094e3a6e9">
   <rect x="26.925" y="8.757025" width="357.12" height="266.112"/>
  </clipPath>
 </defs>
</svg>
